<?xml version="1.0" encoding="utf-8" standalone="no"?>
<!DOCTYPE svg PUBLIC "-//W3C//DTD SVG 1.1//EN"
  "http://www.w3.org/Graphics/SVG/1.1/DTD/svg11.dtd">
<!-- Created with matplotlib (https://matplotlib.org/) -->
<svg height="576pt" version="1.1" viewBox="0 0 1800 576" width="1800pt" xmlns="http://www.w3.org/2000/svg" xmlns:xlink="http://www.w3.org/1999/xlink">
 <defs>
  <style type="text/css">
*{stroke-linecap:butt;stroke-linejoin:round;}
  </style>
 </defs>
 <g id="figure_1">
  <g id="patch_1">
   <path d="M 0 576 
L 1800 576 
L 1800 0 
L 0 0 
z
" style="fill:#ffffff;"/>
  </g>
  <g id="axes_1">
   <g id="patch_2">
    <path d="M 76.55 506.2 
L 1789.2 506.2 
L 1789.2 17.005455 
L 76.55 17.005455 
z
" style="fill:#ffffff;"/>
   </g>
   <g id="PathCollection_1">
    <defs>
     <path d="M 0 5 
C 1.326016 5 2.597899 4.473168 3.535534 3.535534 
C 4.473168 2.597899 5 1.326016 5 0 
C 5 -1.326016 4.473168 -2.597899 3.535534 -3.535534 
C 2.597899 -4.473168 1.326016 -5 0 -5 
C -1.326016 -5 -2.597899 -4.473168 -3.535534 -3.535534 
C -4.473168 -2.597899 -5 -1.326016 -5 0 
C -5 1.326016 -4.473168 2.597899 -3.535534 3.535534 
C -2.597899 4.473168 -1.326016 5 0 5 
z
" id="md630f15b35" style="stroke:#0000ff;"/>
    </defs>
    <g clip-path="url(#p71f5944720)">
     <use style="fill:#0000ff;stroke:#0000ff;" x="717.873582" xlink:href="#md630f15b35" y="372.783306"/>
     <use style="fill:#0000ff;stroke:#0000ff;" x="1024.437664" xlink:href="#md630f15b35" y="372.783306"/>
     <use style="fill:#0000ff;stroke:#0000ff;" x="1024.783673" xlink:href="#md630f15b35" y="372.783306"/>
     <use style="fill:#0000ff;stroke:#0000ff;" x="1137.496144" xlink:href="#md630f15b35" y="372.783306"/>
     <use style="fill:#0000ff;stroke:#0000ff;" x="1336.191883" xlink:href="#md630f15b35" y="335.723113"/>
     <use style="fill:#0000ff;stroke:#0000ff;" x="1389.736794" xlink:href="#md630f15b35" y="372.783306"/>
     <use style="fill:#0000ff;stroke:#0000ff;" x="1396.483972" xlink:href="#md630f15b35" y="372.783306"/>
     <use style="fill:#0000ff;stroke:#0000ff;" x="1650.108658" xlink:href="#md630f15b35" y="335.723113"/>
     <use style="fill:#0000ff;stroke:#0000ff;" x="1663.776018" xlink:href="#md630f15b35" y="372.783306"/>
     <use style="fill:#0000ff;stroke:#0000ff;" x="1664.468037" xlink:href="#md630f15b35" y="372.783306"/>
    </g>
   </g>
   <g id="PathCollection_2">
    <defs>
     <path d="M 0 5 
C 1.326016 5 2.597899 4.473168 3.535534 3.535534 
C 4.473168 2.597899 5 1.326016 5 0 
C 5 -1.326016 4.473168 -2.597899 3.535534 -3.535534 
C 2.597899 -4.473168 1.326016 -5 0 -5 
C -1.326016 -5 -2.597899 -4.473168 -3.535534 -3.535534 
C -4.473168 -2.597899 -5 -1.326016 -5 0 
C -5 1.326016 -4.473168 2.597899 -3.535534 3.535534 
C -2.597899 4.473168 -1.326016 5 0 5 
z
" id="m651004d16c" style="stroke:#ff0000;"/>
    </defs>
    <g clip-path="url(#p71f5944720)">
     <use style="fill:#ff0000;stroke:#ff0000;" x="717.095061" xlink:href="#m651004d16c" y="391.313402"/>
     <use style="fill:#ff0000;stroke:#ff0000;" x="1023.486139" xlink:href="#m651004d16c" y="391.313402"/>
     <use style="fill:#ff0000;stroke:#ff0000;" x="1024.697171" xlink:href="#m651004d16c" y="391.313402"/>
     <use style="fill:#ff0000;stroke:#ff0000;" x="1137.409642" xlink:href="#m651004d16c" y="391.313402"/>
     <use style="fill:#ff0000;stroke:#ff0000;" x="1335.067353" xlink:href="#m651004d16c" y="354.253209"/>
     <use style="fill:#ff0000;stroke:#ff0000;" x="1388.698767" xlink:href="#m651004d16c" y="391.313402"/>
     <use style="fill:#ff0000;stroke:#ff0000;" x="1395.445945" xlink:href="#m651004d16c" y="391.313402"/>
     <use style="fill:#ff0000;stroke:#ff0000;" x="1649.070631" xlink:href="#m651004d16c" y="354.253209"/>
     <use style="fill:#ff0000;stroke:#ff0000;" x="1662.737991" xlink:href="#m651004d16c" y="391.313402"/>
     <use style="fill:#ff0000;stroke:#ff0000;" x="1664.20853" xlink:href="#m651004d16c" y="391.313402"/>
    </g>
   </g>
   <g id="matplotlib.axis_1">
    <g id="xtick_1">
     <g id="line2d_1">
      <defs>
       <path d="M 0 0 
L 0 3.5 
" id="m277f7fc035" style="stroke:#000000;stroke-width:0.8;"/>
      </defs>
      <g>
       <use style="stroke:#000000;stroke-width:0.8;" x="154.311225" xlink:href="#m277f7fc035" y="506.2"/>
      </g>
     </g>
     <g id="text_1">
      <!-- 0 -->
      <defs>
       <path d="M 31.78125 66.40625 
Q 24.171875 66.40625 20.328125 58.90625 
Q 16.5 51.421875 16.5 36.375 
Q 16.5 21.390625 20.328125 13.890625 
Q 24.171875 6.390625 31.78125 6.390625 
Q 39.453125 6.390625 43.28125 13.890625 
Q 47.125 21.390625 47.125 36.375 
Q 47.125 51.421875 43.28125 58.90625 
Q 39.453125 66.40625 31.78125 66.40625 
z
M 31.78125 74.21875 
Q 44.046875 74.21875 50.515625 64.515625 
Q 56.984375 54.828125 56.984375 36.375 
Q 56.984375 17.96875 50.515625 8.265625 
Q 44.046875 -1.421875 31.78125 -1.421875 
Q 19.53125 -1.421875 13.0625 8.265625 
Q 6.59375 17.96875 6.59375 36.375 
Q 6.59375 54.828125 13.0625 64.515625 
Q 19.53125 74.21875 31.78125 74.21875 
z
" id="DejaVuSans-48"/>
      </defs>
      <g transform="translate(146.676225 531.43625)scale(0.24 -0.24)">
       <use xlink:href="#DejaVuSans-48"/>
      </g>
     </g>
    </g>
    <g id="xtick_2">
     <g id="line2d_2">
      <g>
       <use style="stroke:#000000;stroke-width:0.8;" x="370.566926" xlink:href="#m277f7fc035" y="506.2"/>
      </g>
     </g>
     <g id="text_2">
      <!-- 250 -->
      <defs>
       <path d="M 19.1875 8.296875 
L 53.609375 8.296875 
L 53.609375 0 
L 7.328125 0 
L 7.328125 8.296875 
Q 12.9375 14.109375 22.625 23.890625 
Q 32.328125 33.6875 34.8125 36.53125 
Q 39.546875 41.84375 41.421875 45.53125 
Q 43.3125 49.21875 43.3125 52.78125 
Q 43.3125 58.59375 39.234375 62.25 
Q 35.15625 65.921875 28.609375 65.921875 
Q 23.96875 65.921875 18.8125 64.3125 
Q 13.671875 62.703125 7.8125 59.421875 
L 7.8125 69.390625 
Q 13.765625 71.78125 18.9375 73 
Q 24.125 74.21875 28.421875 74.21875 
Q 39.75 74.21875 46.484375 68.546875 
Q 53.21875 62.890625 53.21875 53.421875 
Q 53.21875 48.921875 51.53125 44.890625 
Q 49.859375 40.875 45.40625 35.40625 
Q 44.1875 33.984375 37.640625 27.21875 
Q 31.109375 20.453125 19.1875 8.296875 
z
" id="DejaVuSans-50"/>
       <path d="M 10.796875 72.90625 
L 49.515625 72.90625 
L 49.515625 64.59375 
L 19.828125 64.59375 
L 19.828125 46.734375 
Q 21.96875 47.46875 24.109375 47.828125 
Q 26.265625 48.1875 28.421875 48.1875 
Q 40.625 48.1875 47.75 41.5 
Q 54.890625 34.8125 54.890625 23.390625 
Q 54.890625 11.625 47.5625 5.09375 
Q 40.234375 -1.421875 26.90625 -1.421875 
Q 22.3125 -1.421875 17.546875 -0.640625 
Q 12.796875 0.140625 7.71875 1.703125 
L 7.71875 11.625 
Q 12.109375 9.234375 16.796875 8.0625 
Q 21.484375 6.890625 26.703125 6.890625 
Q 35.15625 6.890625 40.078125 11.328125 
Q 45.015625 15.765625 45.015625 23.390625 
Q 45.015625 31 40.078125 35.4375 
Q 35.15625 39.890625 26.703125 39.890625 
Q 22.75 39.890625 18.8125 39.015625 
Q 14.890625 38.140625 10.796875 36.28125 
z
" id="DejaVuSans-53"/>
      </defs>
      <g transform="translate(347.661926 531.43625)scale(0.24 -0.24)">
       <use xlink:href="#DejaVuSans-50"/>
       <use x="63.623047" xlink:href="#DejaVuSans-53"/>
       <use x="127.246094" xlink:href="#DejaVuSans-48"/>
      </g>
     </g>
    </g>
    <g id="xtick_3">
     <g id="line2d_3">
      <g>
       <use style="stroke:#000000;stroke-width:0.8;" x="586.822627" xlink:href="#m277f7fc035" y="506.2"/>
      </g>
     </g>
     <g id="text_3">
      <!-- 500 -->
      <g transform="translate(563.917627 531.43625)scale(0.24 -0.24)">
       <use xlink:href="#DejaVuSans-53"/>
       <use x="63.623047" xlink:href="#DejaVuSans-48"/>
       <use x="127.246094" xlink:href="#DejaVuSans-48"/>
      </g>
     </g>
    </g>
    <g id="xtick_4">
     <g id="line2d_4">
      <g>
       <use style="stroke:#000000;stroke-width:0.8;" x="803.078328" xlink:href="#m277f7fc035" y="506.2"/>
      </g>
     </g>
     <g id="text_4">
      <!-- 750 -->
      <defs>
       <path d="M 8.203125 72.90625 
L 55.078125 72.90625 
L 55.078125 68.703125 
L 28.609375 0 
L 18.3125 0 
L 43.21875 64.59375 
L 8.203125 64.59375 
z
" id="DejaVuSans-55"/>
      </defs>
      <g transform="translate(780.173328 531.43625)scale(0.24 -0.24)">
       <use xlink:href="#DejaVuSans-55"/>
       <use x="63.623047" xlink:href="#DejaVuSans-53"/>
       <use x="127.246094" xlink:href="#DejaVuSans-48"/>
      </g>
     </g>
    </g>
    <g id="xtick_5">
     <g id="line2d_5">
      <g>
       <use style="stroke:#000000;stroke-width:0.8;" x="1019.334029" xlink:href="#m277f7fc035" y="506.2"/>
      </g>
     </g>
     <g id="text_5">
      <!-- 1000 -->
      <defs>
       <path d="M 12.40625 8.296875 
L 28.515625 8.296875 
L 28.515625 63.921875 
L 10.984375 60.40625 
L 10.984375 69.390625 
L 28.421875 72.90625 
L 38.28125 72.90625 
L 38.28125 8.296875 
L 54.390625 8.296875 
L 54.390625 0 
L 12.40625 0 
z
" id="DejaVuSans-49"/>
      </defs>
      <g transform="translate(988.794029 531.43625)scale(0.24 -0.24)">
       <use xlink:href="#DejaVuSans-49"/>
       <use x="63.623047" xlink:href="#DejaVuSans-48"/>
       <use x="127.246094" xlink:href="#DejaVuSans-48"/>
       <use x="190.869141" xlink:href="#DejaVuSans-48"/>
      </g>
     </g>
    </g>
    <g id="xtick_6">
     <g id="line2d_6">
      <g>
       <use style="stroke:#000000;stroke-width:0.8;" x="1235.58973" xlink:href="#m277f7fc035" y="506.2"/>
      </g>
     </g>
     <g id="text_6">
      <!-- 1250 -->
      <g transform="translate(1205.04973 531.43625)scale(0.24 -0.24)">
       <use xlink:href="#DejaVuSans-49"/>
       <use x="63.623047" xlink:href="#DejaVuSans-50"/>
       <use x="127.246094" xlink:href="#DejaVuSans-53"/>
       <use x="190.869141" xlink:href="#DejaVuSans-48"/>
      </g>
     </g>
    </g>
    <g id="xtick_7">
     <g id="line2d_7">
      <g>
       <use style="stroke:#000000;stroke-width:0.8;" x="1451.845431" xlink:href="#m277f7fc035" y="506.2"/>
      </g>
     </g>
     <g id="text_7">
      <!-- 1500 -->
      <g transform="translate(1421.305431 531.43625)scale(0.24 -0.24)">
       <use xlink:href="#DejaVuSans-49"/>
       <use x="63.623047" xlink:href="#DejaVuSans-53"/>
       <use x="127.246094" xlink:href="#DejaVuSans-48"/>
       <use x="190.869141" xlink:href="#DejaVuSans-48"/>
      </g>
     </g>
    </g>
    <g id="xtick_8">
     <g id="line2d_8">
      <g>
       <use style="stroke:#000000;stroke-width:0.8;" x="1668.101133" xlink:href="#m277f7fc035" y="506.2"/>
      </g>
     </g>
     <g id="text_8">
      <!-- 1750 -->
      <g transform="translate(1637.561133 531.43625)scale(0.24 -0.24)">
       <use xlink:href="#DejaVuSans-49"/>
       <use x="63.623047" xlink:href="#DejaVuSans-55"/>
       <use x="127.246094" xlink:href="#DejaVuSans-53"/>
       <use x="190.869141" xlink:href="#DejaVuSans-48"/>
      </g>
     </g>
    </g>
    <g id="text_9">
     <!-- time -->
     <defs>
      <path d="M 18.3125 70.21875 
L 18.3125 54.6875 
L 36.8125 54.6875 
L 36.8125 47.703125 
L 18.3125 47.703125 
L 18.3125 18.015625 
Q 18.3125 11.328125 20.140625 9.421875 
Q 21.96875 7.515625 27.59375 7.515625 
L 36.8125 7.515625 
L 36.8125 0 
L 27.59375 0 
Q 17.1875 0 13.234375 3.875 
Q 9.28125 7.765625 9.28125 18.015625 
L 9.28125 47.703125 
L 2.6875 47.703125 
L 2.6875 54.6875 
L 9.28125 54.6875 
L 9.28125 70.21875 
z
" id="DejaVuSans-116"/>
      <path d="M 9.421875 54.6875 
L 18.40625 54.6875 
L 18.40625 0 
L 9.421875 0 
z
M 9.421875 75.984375 
L 18.40625 75.984375 
L 18.40625 64.59375 
L 9.421875 64.59375 
z
" id="DejaVuSans-105"/>
      <path d="M 52 44.1875 
Q 55.375 50.25 60.0625 53.125 
Q 64.75 56 71.09375 56 
Q 79.640625 56 84.28125 50.015625 
Q 88.921875 44.046875 88.921875 33.015625 
L 88.921875 0 
L 79.890625 0 
L 79.890625 32.71875 
Q 79.890625 40.578125 77.09375 44.375 
Q 74.3125 48.1875 68.609375 48.1875 
Q 61.625 48.1875 57.5625 43.546875 
Q 53.515625 38.921875 53.515625 30.90625 
L 53.515625 0 
L 44.484375 0 
L 44.484375 32.71875 
Q 44.484375 40.625 41.703125 44.40625 
Q 38.921875 48.1875 33.109375 48.1875 
Q 26.21875 48.1875 22.15625 43.53125 
Q 18.109375 38.875 18.109375 30.90625 
L 18.109375 0 
L 9.078125 0 
L 9.078125 54.6875 
L 18.109375 54.6875 
L 18.109375 46.1875 
Q 21.1875 51.21875 25.484375 53.609375 
Q 29.78125 56 35.6875 56 
Q 41.65625 56 45.828125 52.96875 
Q 50 49.953125 52 44.1875 
z
" id="DejaVuSans-109"/>
      <path d="M 56.203125 29.59375 
L 56.203125 25.203125 
L 14.890625 25.203125 
Q 15.484375 15.921875 20.484375 11.0625 
Q 25.484375 6.203125 34.421875 6.203125 
Q 39.59375 6.203125 44.453125 7.46875 
Q 49.3125 8.734375 54.109375 11.28125 
L 54.109375 2.78125 
Q 49.265625 0.734375 44.1875 -0.34375 
Q 39.109375 -1.421875 33.890625 -1.421875 
Q 20.796875 -1.421875 13.15625 6.1875 
Q 5.515625 13.8125 5.515625 26.8125 
Q 5.515625 40.234375 12.765625 48.109375 
Q 20.015625 56 32.328125 56 
Q 43.359375 56 49.78125 48.890625 
Q 56.203125 41.796875 56.203125 29.59375 
z
M 47.21875 32.234375 
Q 47.125 39.59375 43.09375 43.984375 
Q 39.0625 48.390625 32.421875 48.390625 
Q 24.90625 48.390625 20.390625 44.140625 
Q 15.875 39.890625 15.1875 32.171875 
z
" id="DejaVuSans-101"/>
     </defs>
     <g transform="translate(905.764375 558.66375)scale(0.24 -0.24)">
      <use xlink:href="#DejaVuSans-116"/>
      <use x="39.208984" xlink:href="#DejaVuSans-105"/>
      <use x="66.992188" xlink:href="#DejaVuSans-109"/>
      <use x="164.404297" xlink:href="#DejaVuSans-101"/>
     </g>
    </g>
   </g>
   <g id="matplotlib.axis_2">
    <g id="ytick_1">
     <g id="line2d_9">
      <defs>
       <path d="M 0 0 
L -3.5 0 
" id="m6103fe26e7" style="stroke:#000000;stroke-width:0.8;"/>
      </defs>
      <g>
       <use style="stroke:#000000;stroke-width:0.8;" x="76.55" xlink:href="#m6103fe26e7" y="483.963884"/>
      </g>
     </g>
     <g id="text_10">
      <!-- 0 -->
      <g transform="translate(54.28 493.082009)scale(0.24 -0.24)">
       <use xlink:href="#DejaVuSans-48"/>
      </g>
     </g>
    </g>
    <g id="ytick_2">
     <g id="line2d_10">
      <g>
       <use style="stroke:#000000;stroke-width:0.8;" x="76.55" xlink:href="#m6103fe26e7" y="391.313402"/>
      </g>
     </g>
     <g id="text_11">
      <!-- 5 -->
      <g transform="translate(54.28 400.431527)scale(0.24 -0.24)">
       <use xlink:href="#DejaVuSans-53"/>
      </g>
     </g>
    </g>
    <g id="ytick_3">
     <g id="line2d_11">
      <g>
       <use style="stroke:#000000;stroke-width:0.8;" x="76.55" xlink:href="#m6103fe26e7" y="298.66292"/>
      </g>
     </g>
     <g id="text_12">
      <!-- 10 -->
      <g transform="translate(39.01 307.781045)scale(0.24 -0.24)">
       <use xlink:href="#DejaVuSans-49"/>
       <use x="63.623047" xlink:href="#DejaVuSans-48"/>
      </g>
     </g>
    </g>
    <g id="ytick_4">
     <g id="line2d_12">
      <g>
       <use style="stroke:#000000;stroke-width:0.8;" x="76.55" xlink:href="#m6103fe26e7" y="206.012438"/>
      </g>
     </g>
     <g id="text_13">
      <!-- 15 -->
      <g transform="translate(39.01 215.130563)scale(0.24 -0.24)">
       <use xlink:href="#DejaVuSans-49"/>
       <use x="63.623047" xlink:href="#DejaVuSans-53"/>
      </g>
     </g>
    </g>
    <g id="ytick_5">
     <g id="line2d_13">
      <g>
       <use style="stroke:#000000;stroke-width:0.8;" x="76.55" xlink:href="#m6103fe26e7" y="113.361956"/>
      </g>
     </g>
     <g id="text_14">
      <!-- 20 -->
      <g transform="translate(39.01 122.480081)scale(0.24 -0.24)">
       <use xlink:href="#DejaVuSans-50"/>
       <use x="63.623047" xlink:href="#DejaVuSans-48"/>
      </g>
     </g>
    </g>
    <g id="ytick_6">
     <g id="line2d_14">
      <g>
       <use style="stroke:#000000;stroke-width:0.8;" x="76.55" xlink:href="#m6103fe26e7" y="20.711474"/>
      </g>
     </g>
     <g id="text_15">
      <!-- 25 -->
      <g transform="translate(39.01 29.829599)scale(0.24 -0.24)">
       <use xlink:href="#DejaVuSans-50"/>
       <use x="63.623047" xlink:href="#DejaVuSans-53"/>
      </g>
     </g>
    </g>
    <g id="text_16">
     <!-- number of spiral tips -->
     <defs>
      <path d="M 54.890625 33.015625 
L 54.890625 0 
L 45.90625 0 
L 45.90625 32.71875 
Q 45.90625 40.484375 42.875 44.328125 
Q 39.84375 48.1875 33.796875 48.1875 
Q 26.515625 48.1875 22.3125 43.546875 
Q 18.109375 38.921875 18.109375 30.90625 
L 18.109375 0 
L 9.078125 0 
L 9.078125 54.6875 
L 18.109375 54.6875 
L 18.109375 46.1875 
Q 21.34375 51.125 25.703125 53.5625 
Q 30.078125 56 35.796875 56 
Q 45.21875 56 50.046875 50.171875 
Q 54.890625 44.34375 54.890625 33.015625 
z
" id="DejaVuSans-110"/>
      <path d="M 8.5 21.578125 
L 8.5 54.6875 
L 17.484375 54.6875 
L 17.484375 21.921875 
Q 17.484375 14.15625 20.5 10.265625 
Q 23.53125 6.390625 29.59375 6.390625 
Q 36.859375 6.390625 41.078125 11.03125 
Q 45.3125 15.671875 45.3125 23.6875 
L 45.3125 54.6875 
L 54.296875 54.6875 
L 54.296875 0 
L 45.3125 0 
L 45.3125 8.40625 
Q 42.046875 3.421875 37.71875 1 
Q 33.40625 -1.421875 27.6875 -1.421875 
Q 18.265625 -1.421875 13.375 4.4375 
Q 8.5 10.296875 8.5 21.578125 
z
M 31.109375 56 
z
" id="DejaVuSans-117"/>
      <path d="M 48.6875 27.296875 
Q 48.6875 37.203125 44.609375 42.84375 
Q 40.53125 48.484375 33.40625 48.484375 
Q 26.265625 48.484375 22.1875 42.84375 
Q 18.109375 37.203125 18.109375 27.296875 
Q 18.109375 17.390625 22.1875 11.75 
Q 26.265625 6.109375 33.40625 6.109375 
Q 40.53125 6.109375 44.609375 11.75 
Q 48.6875 17.390625 48.6875 27.296875 
z
M 18.109375 46.390625 
Q 20.953125 51.265625 25.265625 53.625 
Q 29.59375 56 35.59375 56 
Q 45.5625 56 51.78125 48.09375 
Q 58.015625 40.1875 58.015625 27.296875 
Q 58.015625 14.40625 51.78125 6.484375 
Q 45.5625 -1.421875 35.59375 -1.421875 
Q 29.59375 -1.421875 25.265625 0.953125 
Q 20.953125 3.328125 18.109375 8.203125 
L 18.109375 0 
L 9.078125 0 
L 9.078125 75.984375 
L 18.109375 75.984375 
z
" id="DejaVuSans-98"/>
      <path d="M 41.109375 46.296875 
Q 39.59375 47.171875 37.8125 47.578125 
Q 36.03125 48 33.890625 48 
Q 26.265625 48 22.1875 43.046875 
Q 18.109375 38.09375 18.109375 28.8125 
L 18.109375 0 
L 9.078125 0 
L 9.078125 54.6875 
L 18.109375 54.6875 
L 18.109375 46.1875 
Q 20.953125 51.171875 25.484375 53.578125 
Q 30.03125 56 36.53125 56 
Q 37.453125 56 38.578125 55.875 
Q 39.703125 55.765625 41.0625 55.515625 
z
" id="DejaVuSans-114"/>
      <path id="DejaVuSans-32"/>
      <path d="M 30.609375 48.390625 
Q 23.390625 48.390625 19.1875 42.75 
Q 14.984375 37.109375 14.984375 27.296875 
Q 14.984375 17.484375 19.15625 11.84375 
Q 23.34375 6.203125 30.609375 6.203125 
Q 37.796875 6.203125 41.984375 11.859375 
Q 46.1875 17.53125 46.1875 27.296875 
Q 46.1875 37.015625 41.984375 42.703125 
Q 37.796875 48.390625 30.609375 48.390625 
z
M 30.609375 56 
Q 42.328125 56 49.015625 48.375 
Q 55.71875 40.765625 55.71875 27.296875 
Q 55.71875 13.875 49.015625 6.21875 
Q 42.328125 -1.421875 30.609375 -1.421875 
Q 18.84375 -1.421875 12.171875 6.21875 
Q 5.515625 13.875 5.515625 27.296875 
Q 5.515625 40.765625 12.171875 48.375 
Q 18.84375 56 30.609375 56 
z
" id="DejaVuSans-111"/>
      <path d="M 37.109375 75.984375 
L 37.109375 68.5 
L 28.515625 68.5 
Q 23.6875 68.5 21.796875 66.546875 
Q 19.921875 64.59375 19.921875 59.515625 
L 19.921875 54.6875 
L 34.71875 54.6875 
L 34.71875 47.703125 
L 19.921875 47.703125 
L 19.921875 0 
L 10.890625 0 
L 10.890625 47.703125 
L 2.296875 47.703125 
L 2.296875 54.6875 
L 10.890625 54.6875 
L 10.890625 58.5 
Q 10.890625 67.625 15.140625 71.796875 
Q 19.390625 75.984375 28.609375 75.984375 
z
" id="DejaVuSans-102"/>
      <path d="M 44.28125 53.078125 
L 44.28125 44.578125 
Q 40.484375 46.53125 36.375 47.5 
Q 32.28125 48.484375 27.875 48.484375 
Q 21.1875 48.484375 17.84375 46.4375 
Q 14.5 44.390625 14.5 40.28125 
Q 14.5 37.15625 16.890625 35.375 
Q 19.28125 33.59375 26.515625 31.984375 
L 29.59375 31.296875 
Q 39.15625 29.25 43.1875 25.515625 
Q 47.21875 21.78125 47.21875 15.09375 
Q 47.21875 7.46875 41.1875 3.015625 
Q 35.15625 -1.421875 24.609375 -1.421875 
Q 20.21875 -1.421875 15.453125 -0.5625 
Q 10.6875 0.296875 5.421875 2 
L 5.421875 11.28125 
Q 10.40625 8.6875 15.234375 7.390625 
Q 20.0625 6.109375 24.8125 6.109375 
Q 31.15625 6.109375 34.5625 8.28125 
Q 37.984375 10.453125 37.984375 14.40625 
Q 37.984375 18.0625 35.515625 20.015625 
Q 33.0625 21.96875 24.703125 23.78125 
L 21.578125 24.515625 
Q 13.234375 26.265625 9.515625 29.90625 
Q 5.8125 33.546875 5.8125 39.890625 
Q 5.8125 47.609375 11.28125 51.796875 
Q 16.75 56 26.8125 56 
Q 31.78125 56 36.171875 55.265625 
Q 40.578125 54.546875 44.28125 53.078125 
z
" id="DejaVuSans-115"/>
      <path d="M 18.109375 8.203125 
L 18.109375 -20.796875 
L 9.078125 -20.796875 
L 9.078125 54.6875 
L 18.109375 54.6875 
L 18.109375 46.390625 
Q 20.953125 51.265625 25.265625 53.625 
Q 29.59375 56 35.59375 56 
Q 45.5625 56 51.78125 48.09375 
Q 58.015625 40.1875 58.015625 27.296875 
Q 58.015625 14.40625 51.78125 6.484375 
Q 45.5625 -1.421875 35.59375 -1.421875 
Q 29.59375 -1.421875 25.265625 0.953125 
Q 20.953125 3.328125 18.109375 8.203125 
z
M 48.6875 27.296875 
Q 48.6875 37.203125 44.609375 42.84375 
Q 40.53125 48.484375 33.40625 48.484375 
Q 26.265625 48.484375 22.1875 42.84375 
Q 18.109375 37.203125 18.109375 27.296875 
Q 18.109375 17.390625 22.1875 11.75 
Q 26.265625 6.109375 33.40625 6.109375 
Q 40.53125 6.109375 44.609375 11.75 
Q 48.6875 17.390625 48.6875 27.296875 
z
" id="DejaVuSans-112"/>
      <path d="M 34.28125 27.484375 
Q 23.390625 27.484375 19.1875 25 
Q 14.984375 22.515625 14.984375 16.5 
Q 14.984375 11.71875 18.140625 8.90625 
Q 21.296875 6.109375 26.703125 6.109375 
Q 34.1875 6.109375 38.703125 11.40625 
Q 43.21875 16.703125 43.21875 25.484375 
L 43.21875 27.484375 
z
M 52.203125 31.203125 
L 52.203125 0 
L 43.21875 0 
L 43.21875 8.296875 
Q 40.140625 3.328125 35.546875 0.953125 
Q 30.953125 -1.421875 24.3125 -1.421875 
Q 15.921875 -1.421875 10.953125 3.296875 
Q 6 8.015625 6 15.921875 
Q 6 25.140625 12.171875 29.828125 
Q 18.359375 34.515625 30.609375 34.515625 
L 43.21875 34.515625 
L 43.21875 35.40625 
Q 43.21875 41.609375 39.140625 45 
Q 35.0625 48.390625 27.6875 48.390625 
Q 23 48.390625 18.546875 47.265625 
Q 14.109375 46.140625 10.015625 43.890625 
L 10.015625 52.203125 
Q 14.9375 54.109375 19.578125 55.046875 
Q 24.21875 56 28.609375 56 
Q 40.484375 56 46.34375 49.84375 
Q 52.203125 43.703125 52.203125 31.203125 
z
" id="DejaVuSans-97"/>
      <path d="M 9.421875 75.984375 
L 18.40625 75.984375 
L 18.40625 0 
L 9.421875 0 
z
" id="DejaVuSans-108"/>
     </defs>
     <g transform="translate(30.01875 386.175852)rotate(-90)scale(0.24 -0.24)">
      <use xlink:href="#DejaVuSans-110"/>
      <use x="63.378906" xlink:href="#DejaVuSans-117"/>
      <use x="126.757812" xlink:href="#DejaVuSans-109"/>
      <use x="224.169922" xlink:href="#DejaVuSans-98"/>
      <use x="287.646484" xlink:href="#DejaVuSans-101"/>
      <use x="349.169922" xlink:href="#DejaVuSans-114"/>
      <use x="390.283203" xlink:href="#DejaVuSans-32"/>
      <use x="422.070312" xlink:href="#DejaVuSans-111"/>
      <use x="483.251953" xlink:href="#DejaVuSans-102"/>
      <use x="518.457031" xlink:href="#DejaVuSans-32"/>
      <use x="550.244141" xlink:href="#DejaVuSans-115"/>
      <use x="602.34375" xlink:href="#DejaVuSans-112"/>
      <use x="665.820312" xlink:href="#DejaVuSans-105"/>
      <use x="693.603516" xlink:href="#DejaVuSans-114"/>
      <use x="734.716797" xlink:href="#DejaVuSans-97"/>
      <use x="795.996094" xlink:href="#DejaVuSans-108"/>
      <use x="823.779297" xlink:href="#DejaVuSans-32"/>
      <use x="855.566406" xlink:href="#DejaVuSans-116"/>
      <use x="894.775391" xlink:href="#DejaVuSans-105"/>
      <use x="922.558594" xlink:href="#DejaVuSans-112"/>
      <use x="986.035156" xlink:href="#DejaVuSans-115"/>
     </g>
    </g>
   </g>
   <g id="line2d_15">
    <path clip-path="url(#p71f5944720)" d="M 154.397727 483.963884 
L 154.657234 483.963884 
L 154.743736 335.723113 
L 154.916741 446.903691 
L 237.439916 446.903691 
L 237.612921 409.843499 
L 237.699423 409.843499 
L 237.872428 446.903691 
L 238.045432 446.903691 
L 238.218437 409.843499 
L 238.304939 409.843499 
L 238.477944 372.783306 
L 238.564446 372.783306 
L 238.737451 409.843499 
L 238.996958 409.843499 
L 239.169962 372.783306 
L 239.256464 372.783306 
L 239.342967 335.723113 
L 239.515971 372.783306 
L 298.683531 372.783306 
L 298.856536 335.723113 
L 299.02954 372.783306 
L 299.635056 372.783306 
L 299.808061 335.723113 
L 299.894563 335.723113 
L 300.067568 372.783306 
L 300.327074 372.783306 
L 300.413577 335.723113 
L 300.500079 372.783306 
L 300.673083 335.723113 
L 300.759586 335.723113 
L 300.93259 298.66292 
L 301.019093 298.66292 
L 301.278599 224.542534 
L 301.451604 298.66292 
L 301.538106 187.482342 
L 301.624609 261.602727 
L 301.797613 187.482342 
L 301.970618 261.602727 
L 302.05712 261.602727 
L 302.230125 224.542534 
L 302.403129 261.602727 
L 305.171202 261.602727 
L 305.257704 224.542534 
L 305.430709 261.602727 
L 311.831878 261.602727 
L 311.91838 224.542534 
L 312.004882 261.602727 
L 312.091384 224.542534 
L 312.264389 261.602727 
L 312.350891 224.542534 
L 312.523896 298.66292 
L 312.6969 261.602727 
L 312.956407 335.723113 
L 313.129412 298.66292 
L 313.302416 335.723113 
L 332.592425 335.723113 
L 332.76543 372.783306 
L 334.322471 372.783306 
L 334.495475 409.843499 
L 449.803015 409.843499 
L 449.97602 446.903691 
L 624.364617 446.903691 
L 624.537621 409.843499 
L 624.624124 409.843499 
L 624.710626 446.903691 
L 624.970133 372.783306 
L 625.143137 372.783306 
L 625.22964 409.843499 
L 625.316142 372.783306 
L 625.402644 409.843499 
L 625.575649 372.783306 
L 654.81342 372.783306 
L 654.899922 335.723113 
L 655.072926 372.783306 
L 655.418936 372.783306 
L 655.505438 261.602727 
L 655.678442 372.783306 
L 655.937949 372.783306 
L 656.024451 298.66292 
L 656.197456 372.783306 
L 717.008559 372.783306 
L 717.181564 391.313402 
L 717.78708 391.313402 
L 717.960084 372.783306 
L 718.133089 409.843499 
L 723.582733 409.843499 
L 723.669235 335.723113 
L 723.842239 409.843499 
L 727.561837 409.843499 
L 727.734842 372.783306 
L 727.907847 409.843499 
L 728.513362 409.843499 
L 728.686367 372.783306 
L 728.859372 372.783306 
L 729.032376 409.843499 
L 729.291883 409.843499 
L 729.378385 372.783306 
L 729.55139 409.843499 
L 729.724394 372.783306 
L 729.810897 372.783306 
L 729.983901 409.843499 
L 730.502915 409.843499 
L 730.675919 372.783306 
L 730.848924 372.783306 
L 731.021929 409.843499 
L 731.45444 409.843499 
L 731.627445 372.783306 
L 731.800449 372.783306 
L 731.973454 409.843499 
L 732.059956 409.843499 
L 732.146458 372.783306 
L 732.319463 409.843499 
L 732.492467 409.843499 
L 732.665472 372.783306 
L 732.838477 372.783306 
L 733.011481 409.843499 
L 733.097983 335.723113 
L 733.270988 409.843499 
L 733.35749 409.843499 
L 733.443992 298.66292 
L 733.616997 372.783306 
L 734.049508 372.783306 
L 734.222513 409.843499 
L 734.309015 335.723113 
L 734.48202 372.783306 
L 734.568522 335.723113 
L 734.655024 372.783306 
L 734.828029 298.66292 
L 734.914531 372.783306 
L 735.001034 335.723113 
L 735.087536 224.542534 
L 735.174038 409.843499 
L 735.347043 335.723113 
L 735.520047 409.843499 
L 735.606549 224.542534 
L 735.779554 335.723113 
L 735.952559 335.723113 
L 736.039061 261.602727 
L 736.125563 335.723113 
L 736.212065 298.66292 
L 736.38507 372.783306 
L 736.558075 298.66292 
L 736.817581 372.783306 
L 736.990586 298.66292 
L 737.163591 335.723113 
L 737.336595 335.723113 
L 737.423097 261.602727 
L 737.596102 335.723113 
L 737.682604 335.723113 
L 737.769106 298.66292 
L 737.942111 335.723113 
L 738.028613 261.602727 
L 738.201618 335.723113 
L 738.28812 335.723113 
L 738.374622 298.66292 
L 738.547627 335.723113 
L 738.634129 224.542534 
L 738.807134 335.723113 
L 738.893636 298.66292 
L 739.066641 335.723113 
L 739.239645 335.723113 
L 739.326148 298.66292 
L 739.41265 335.723113 
L 739.585654 261.602727 
L 739.758659 335.723113 
L 740.19117 335.723113 
L 740.277673 298.66292 
L 740.450677 335.723113 
L 740.710184 335.723113 
L 740.796686 224.542534 
L 740.969691 335.723113 
L 741.142695 335.723113 
L 741.229198 298.66292 
L 741.402202 335.723113 
L 742.353727 335.723113 
L 742.44023 298.66292 
L 742.613234 335.723113 
L 752.820503 335.723113 
L 752.993508 298.66292 
L 753.08001 298.66292 
L 753.253015 335.723113 
L 753.772028 335.723113 
L 753.945033 261.602727 
L 754.031535 298.66292 
L 754.118037 261.602727 
L 754.291042 298.66292 
L 754.723553 298.66292 
L 754.98306 224.542534 
L 755.069563 261.602727 
L 755.242567 224.542534 
L 755.415572 298.66292 
L 755.502074 261.602727 
L 755.588576 298.66292 
L 755.761581 224.542534 
L 755.934585 261.602727 
L 756.021088 261.602727 
L 756.194092 224.542534 
L 756.540101 224.542534 
L 756.626604 261.602727 
L 756.799608 224.542534 
L 757.059115 224.542534 
L 757.23212 150.422149 
L 757.578129 261.602727 
L 757.751133 224.542534 
L 757.924138 261.602727 
L 758.097142 261.602727 
L 758.356649 187.482342 
L 758.443152 224.542534 
L 758.529654 187.482342 
L 758.616156 261.602727 
L 758.789161 224.542534 
L 758.875663 224.542534 
L 759.048667 261.602727 
L 759.13517 261.602727 
L 759.308174 224.542534 
L 759.481179 224.542534 
L 759.654183 261.602727 
L 760.173197 261.602727 
L 760.259699 224.542534 
L 760.432704 261.602727 
L 770.120959 261.602727 
L 770.207462 298.66292 
L 770.380466 261.602727 
L 770.812978 261.602727 
L 770.985982 298.66292 
L 771.158987 298.66292 
L 771.331991 261.602727 
L 771.591498 261.602727 
L 771.764503 298.66292 
L 772.110512 298.66292 
L 772.283516 261.602727 
L 772.370019 261.602727 
L 772.543023 298.66292 
L 773.062037 298.66292 
L 773.148539 261.602727 
L 773.321544 298.66292 
L 773.92706 298.66292 
L 774.013562 261.602727 
L 774.186567 298.66292 
L 815.967168 298.66292 
L 816.140173 335.723113 
L 819.427259 335.723113 
L 819.513761 298.66292 
L 819.686766 335.723113 
L 846.76198 335.723113 
L 846.848482 298.66292 
L 847.021487 335.723113 
L 847.5405 335.723113 
L 847.627003 298.66292 
L 847.800007 335.723113 
L 848.146016 335.723113 
L 848.232519 261.602727 
L 848.492025 335.723113 
L 848.924537 335.723113 
L 849.011039 261.602727 
L 849.184044 298.66292 
L 849.270546 298.66292 
L 849.357048 335.723113 
L 849.530053 298.66292 
L 849.78956 298.66292 
L 849.876062 261.602727 
L 850.049066 298.66292 
L 850.135569 298.66292 
L 850.222071 261.602727 
L 850.308573 335.723113 
L 850.56808 224.542534 
L 850.827587 335.723113 
L 850.914089 298.66292 
L 851.087094 187.482342 
L 851.173596 113.361956 
L 851.433103 261.602727 
L 851.519605 39.24157 
L 851.69261 261.602727 
L 851.779112 261.602727 
L 851.952117 150.422149 
L 852.125121 224.542534 
L 852.211623 187.482342 
L 852.384628 261.602727 
L 852.557633 298.66292 
L 852.644135 187.482342 
L 852.817139 261.602727 
L 852.990144 298.66292 
L 853.163149 261.602727 
L 853.336153 298.66292 
L 853.941669 298.66292 
L 854.028171 187.482342 
L 854.374181 298.66292 
L 854.460683 298.66292 
L 854.633687 261.602727 
L 854.806692 298.66292 
L 857.142253 298.66292 
L 857.228756 261.602727 
L 857.40176 298.66292 
L 857.747769 298.66292 
L 857.834272 261.602727 
L 858.007276 298.66292 
L 858.093779 224.542534 
L 858.266783 335.723113 
L 858.699295 335.723113 
L 858.785797 298.66292 
L 858.958801 335.723113 
L 860.861852 335.723113 
L 860.948354 298.66292 
L 861.121358 335.723113 
L 861.207861 298.66292 
L 861.380865 335.723113 
L 861.986381 335.723113 
L 862.072883 298.66292 
L 862.245888 335.723113 
L 865.100463 335.723113 
L 865.186966 298.66292 
L 865.35997 335.723113 
L 866.657504 335.723113 
L 866.744007 298.66292 
L 866.917011 335.723113 
L 867.955039 335.723113 
L 868.041541 298.66292 
L 868.214545 335.723113 
L 868.647057 335.723113 
L 868.733559 298.66292 
L 868.906564 335.723113 
L 870.723112 335.723113 
L 870.809614 298.66292 
L 870.982618 335.723113 
L 871.155623 335.723113 
L 871.242125 298.66292 
L 871.41513 335.723113 
L 872.712664 335.723113 
L 872.799166 298.66292 
L 872.972171 335.723113 
L 873.491184 335.723113 
L 873.577687 298.66292 
L 873.750691 335.723113 
L 874.269705 335.723113 
L 874.356207 298.66292 
L 874.529212 335.723113 
L 878.162308 335.723113 
L 878.24881 298.66292 
L 878.421814 335.723113 
L 879.546344 335.723113 
L 879.632846 298.66292 
L 879.805851 335.723113 
L 879.892353 335.723113 
L 880.065358 298.66292 
L 880.238362 335.723113 
L 881.881906 335.723113 
L 881.968408 298.66292 
L 882.141413 335.723113 
L 883.611951 335.723113 
L 883.698454 298.66292 
L 883.871458 335.723113 
L 887.677558 335.723113 
L 887.850563 298.66292 
L 888.11007 298.66292 
L 888.283074 335.723113 
L 889.061595 335.723113 
L 889.2346 298.66292 
L 889.667111 298.66292 
L 889.753613 335.723113 
L 889.840115 298.66292 
L 890.01312 335.723113 
L 890.186125 298.66292 
L 890.272627 335.723113 
L 890.445631 298.66292 
L 892.867695 298.66292 
L 892.954198 261.602727 
L 893.127202 298.66292 
L 893.300207 261.602727 
L 893.386709 298.66292 
L 893.559714 261.602727 
L 893.646216 261.602727 
L 893.732718 298.66292 
L 893.905723 261.602727 
L 900.99891 261.602727 
L 901.085412 224.542534 
L 901.258417 261.602727 
L 903.161467 261.602727 
L 903.334471 335.723113 
L 903.420974 261.602727 
L 903.593978 372.783306 
L 903.68048 335.723113 
L 903.766983 298.66292 
L 903.939987 372.783306 
L 904.026489 335.723113 
L 904.112992 372.783306 
L 904.199494 335.723113 
L 904.285996 372.783306 
L 904.372499 335.723113 
L 904.632005 409.843499 
L 929.544662 409.843499 
L 929.717667 446.903691 
L 942.606507 446.903691 
L 942.693009 372.783306 
L 942.779511 446.903691 
L 942.866013 372.783306 
L 943.039018 409.843499 
L 943.558032 409.843499 
L 943.644534 372.783306 
L 943.817538 409.843499 
L 945.288077 409.843499 
L 945.461082 372.783306 
L 945.547584 372.783306 
L 945.634086 409.843499 
L 945.807091 372.783306 
L 945.980095 372.783306 
L 946.066598 409.843499 
L 946.239602 372.783306 
L 1023.399636 372.783306 
L 1023.572641 391.313402 
L 1024.351162 391.313402 
L 1024.524166 372.783306 
L 1024.610668 372.783306 
L 1024.697171 391.313402 
L 1024.870175 372.783306 
L 1024.956678 372.783306 
L 1025.129682 409.843499 
L 1072.792439 409.843499 
L 1072.878941 372.783306 
L 1073.051945 409.843499 
L 1073.22495 409.843499 
L 1073.397955 298.66292 
L 1073.484457 335.723113 
L 1073.570959 372.783306 
L 1073.657461 298.66292 
L 1073.830466 372.783306 
L 1075.733516 372.783306 
L 1075.906521 335.723113 
L 1076.079525 335.723113 
L 1076.25253 372.783306 
L 1076.598539 372.783306 
L 1076.771543 335.723113 
L 1076.944548 372.783306 
L 1077.463562 372.783306 
L 1077.636566 335.723113 
L 1077.809571 372.783306 
L 1077.896073 372.783306 
L 1078.069078 335.723113 
L 1078.242082 372.783306 
L 1078.847598 372.783306 
L 1079.020603 298.66292 
L 1079.193607 335.723113 
L 1079.28011 335.723113 
L 1079.366612 372.783306 
L 1079.539616 298.66292 
L 1079.972128 298.66292 
L 1080.05863 224.542534 
L 1080.231635 261.602727 
L 1080.318137 224.542534 
L 1080.404639 298.66292 
L 1080.491142 261.602727 
L 1080.577644 298.66292 
L 1080.837151 187.482342 
L 1081.010155 261.602727 
L 1081.18316 187.482342 
L 1081.356164 224.542534 
L 1081.442667 224.542534 
L 1081.615671 261.602727 
L 1081.875178 261.602727 
L 1082.048183 335.723113 
L 1082.221187 298.66292 
L 1082.480694 298.66292 
L 1082.567196 261.602727 
L 1082.913205 372.783306 
L 1083.08621 372.783306 
L 1083.259215 335.723113 
L 1083.605224 335.723113 
L 1083.778228 372.783306 
L 1084.124237 372.783306 
L 1084.21074 335.723113 
L 1084.297242 372.783306 
L 1084.470246 335.723113 
L 1084.643251 372.783306 
L 1137.32314 372.783306 
L 1137.409642 391.313402 
L 1137.582647 372.783306 
L 1137.755651 409.843499 
L 1168.896472 409.843499 
L 1168.982974 372.783306 
L 1169.155979 409.843499 
L 1169.328984 409.843499 
L 1169.501988 372.783306 
L 1169.847997 372.783306 
L 1169.9345 409.843499 
L 1170.107504 372.783306 
L 1170.194006 372.783306 
L 1170.367011 409.843499 
L 1170.540015 372.783306 
L 1171.318536 372.783306 
L 1171.405038 409.843499 
L 1171.578043 372.783306 
L 1176.249166 372.783306 
L 1176.422171 335.723113 
L 1176.681677 335.723113 
L 1176.854682 372.783306 
L 1177.373696 372.783306 
L 1177.5467 335.723113 
L 1177.979212 335.723113 
L 1178.152216 372.783306 
L 1178.411723 372.783306 
L 1178.584728 335.723113 
L 1179.103741 335.723113 
L 1179.276746 372.783306 
L 1179.44975 372.783306 
L 1179.709257 298.66292 
L 1179.882262 335.723113 
L 1180.314773 335.723113 
L 1180.401275 298.66292 
L 1180.660782 372.783306 
L 1180.747285 335.723113 
L 1180.920289 372.783306 
L 1181.006791 372.783306 
L 1181.093294 335.723113 
L 1181.179796 372.783306 
L 1181.352801 335.723113 
L 1181.525805 372.783306 
L 1181.612307 372.783306 
L 1181.69881 335.723113 
L 1181.871814 372.783306 
L 1182.563832 372.783306 
L 1182.650335 335.723113 
L 1182.823339 372.783306 
L 1207.909001 372.783306 
L 1207.995503 409.843499 
L 1208.168507 335.723113 
L 1208.341512 372.783306 
L 1208.514517 372.783306 
L 1208.601019 335.723113 
L 1208.774023 372.783306 
L 1208.860526 372.783306 
L 1208.947028 409.843499 
L 1209.120033 372.783306 
L 1209.206535 372.783306 
L 1209.293037 409.843499 
L 1209.466042 335.723113 
L 1209.639046 409.843499 
L 1209.812051 372.783306 
L 1209.985055 409.843499 
L 1210.15806 372.783306 
L 1210.331064 409.843499 
L 1210.504069 372.783306 
L 1210.590571 409.843499 
L 1210.763576 335.723113 
L 1210.93658 409.843499 
L 1211.109585 372.783306 
L 1211.28259 409.843499 
L 1211.628599 409.843499 
L 1211.715101 372.783306 
L 1211.888106 409.843499 
L 1260.588889 409.843499 
L 1260.761894 372.783306 
L 1260.848396 372.783306 
L 1261.021401 409.843499 
L 1261.107903 409.843499 
L 1261.194405 372.783306 
L 1261.36741 409.843499 
L 1261.540414 372.783306 
L 1264.048981 372.783306 
L 1264.135483 335.723113 
L 1264.308487 372.783306 
L 1264.914003 372.783306 
L 1265.000506 298.66292 
L 1265.087008 335.723113 
L 1265.17351 298.66292 
L 1265.346515 335.723113 
L 1300.293436 335.723113 
L 1300.466441 298.66292 
L 1300.639445 298.66292 
L 1300.81245 335.723113 
L 1300.985454 298.66292 
L 1311.192723 298.66292 
L 1311.365728 335.723113 
L 1314.220303 335.723113 
L 1314.393308 298.66292 
L 1314.912322 298.66292 
L 1315.085326 335.723113 
L 1315.258331 335.723113 
L 1315.431335 298.66292 
L 1315.60434 335.723113 
L 1315.777344 335.723113 
L 1315.950349 298.66292 
L 1325.033088 298.66292 
L 1325.206093 335.723113 
L 1334.980851 335.723113 
L 1335.153855 354.253209 
L 1336.10538 354.253209 
L 1336.278385 335.723113 
L 1336.970403 335.723113 
L 1337.143408 372.783306 
L 1388.612264 372.783306 
L 1388.785269 391.313402 
L 1389.650292 391.313402 
L 1389.823296 372.783306 
L 1395.359442 372.783306 
L 1395.532447 391.313402 
L 1396.39747 391.313402 
L 1396.570474 372.783306 
L 1436.62103 372.783306 
L 1436.707532 409.843499 
L 1436.794035 372.783306 
L 1436.967039 409.843499 
L 1473.03849 409.843499 
L 1473.124992 335.723113 
L 1473.297997 409.843499 
L 1473.644006 409.843499 
L 1473.730508 372.783306 
L 1473.903513 409.843499 
L 1473.990015 409.843499 
L 1474.16302 372.783306 
L 1474.336024 409.843499 
L 1474.422527 409.843499 
L 1474.595531 335.723113 
L 1474.855038 409.843499 
L 1474.94154 298.66292 
L 1475.028043 409.843499 
L 1475.114545 372.783306 
L 1475.287549 409.843499 
L 1475.374052 335.723113 
L 1475.460554 372.783306 
L 1475.547056 335.723113 
L 1475.720061 409.843499 
L 1475.806563 409.843499 
L 1475.893065 298.66292 
L 1475.979568 409.843499 
L 1476.06607 335.723113 
L 1476.325577 409.843499 
L 1476.671586 409.843499 
L 1476.84459 372.783306 
L 1477.017595 409.843499 
L 1484.02428 409.843499 
L 1484.110782 335.723113 
L 1484.283787 409.843499 
L 1484.370289 409.843499 
L 1484.456791 372.783306 
L 1484.543293 409.843499 
L 1484.629796 372.783306 
L 1484.8028 409.843499 
L 1484.889303 409.843499 
L 1485.062307 335.723113 
L 1485.235312 409.843499 
L 1485.408316 335.723113 
L 1485.494819 409.843499 
L 1485.581321 261.602727 
L 1485.667823 409.843499 
L 1485.754325 372.783306 
L 1485.840828 409.843499 
L 1485.92733 372.783306 
L 1486.100334 409.843499 
L 1486.273339 372.783306 
L 1486.446344 409.843499 
L 1578.052259 409.843499 
L 1578.225263 372.783306 
L 1578.398268 409.843499 
L 1579.003784 409.843499 
L 1579.176788 372.783306 
L 1579.263291 372.783306 
L 1579.436295 409.843499 
L 1579.955309 409.843499 
L 1580.128313 372.783306 
L 1580.38782 372.783306 
L 1580.560825 335.723113 
L 1580.733829 372.783306 
L 1580.820332 335.723113 
L 1580.993336 372.783306 
L 1581.51235 372.783306 
L 1581.685354 335.723113 
L 1581.858359 372.783306 
L 1582.550377 372.783306 
L 1582.636879 335.723113 
L 1582.809884 372.783306 
L 1583.4154 372.783306 
L 1583.588405 335.723113 
L 1583.761409 335.723113 
L 1583.934414 372.783306 
L 1584.366925 372.783306 
L 1584.53993 335.723113 
L 1584.885939 335.723113 
L 1584.972441 298.66292 
L 1585.058943 335.723113 
L 1585.231948 298.66292 
L 1585.31845 298.66292 
L 1585.491455 335.723113 
L 1586.010468 335.723113 
L 1586.096971 298.66292 
L 1586.269975 335.723113 
L 1590.076076 335.723113 
L 1590.24908 298.66292 
L 1604.175947 298.66292 
L 1604.348952 261.602727 
L 1605.732988 261.602727 
L 1605.905993 298.66292 
L 1617.583801 298.66292 
L 1617.756805 335.723113 
L 1648.984129 335.723113 
L 1649.157133 354.253209 
L 1650.022156 354.253209 
L 1650.19516 335.723113 
L 1652.098211 335.723113 
L 1652.271215 372.783306 
L 1662.651489 372.783306 
L 1662.824493 391.313402 
L 1663.689516 391.313402 
L 1663.862521 372.783306 
L 1664.122028 372.783306 
L 1664.295032 391.313402 
L 1664.381534 391.313402 
L 1664.554539 372.783306 
L 1664.900548 372.783306 
L 1665.073553 409.843499 
L 1711.352273 409.843499 
L 1711.352273 409.843499 
" style="fill:none;stroke:#008000;stroke-linecap:square;stroke-opacity:0.8;stroke-width:2;"/>
   </g>
   <g id="patch_3">
    <path d="M 76.55 506.2 
L 76.55 17.005455 
" style="fill:none;stroke:#000000;stroke-linecap:square;stroke-linejoin:miter;stroke-width:0.8;"/>
   </g>
   <g id="patch_4">
    <path d="M 1789.2 506.2 
L 1789.2 17.005455 
" style="fill:none;stroke:#000000;stroke-linecap:square;stroke-linejoin:miter;stroke-width:0.8;"/>
   </g>
   <g id="patch_5">
    <path d="M 76.55 506.2 
L 1789.2 506.2 
" style="fill:none;stroke:#000000;stroke-linecap:square;stroke-linejoin:miter;stroke-width:0.8;"/>
   </g>
   <g id="patch_6">
    <path d="M 76.55 17.005455 
L 1789.2 17.005455 
" style="fill:none;stroke:#000000;stroke-linecap:square;stroke-linejoin:miter;stroke-width:0.8;"/>
   </g>
   <g id="legend_1">
    <g id="patch_7">
     <path d="M 1608.527812 87.98233 
L 1775.9 87.98233 
Q 1779.7 87.98233 1779.7 84.18233 
L 1779.7 30.305455 
Q 1779.7 26.505455 1775.9 26.505455 
L 1608.527812 26.505455 
Q 1604.727813 26.505455 1604.727813 30.305455 
L 1604.727813 84.18233 
Q 1604.727813 87.98233 1608.527812 87.98233 
z
" style="fill:#ffffff;opacity:0.8;stroke:#cccccc;stroke-linejoin:miter;"/>
    </g>
    <g id="PathCollection_3">
     <g>
      <use style="fill:#0000ff;stroke:#0000ff;" x="1631.327812" xlink:href="#md630f15b35" y="43.554986"/>
     </g>
    </g>
    <g id="text_17">
     <!-- odd births -->
     <defs>
      <path d="M 45.40625 46.390625 
L 45.40625 75.984375 
L 54.390625 75.984375 
L 54.390625 0 
L 45.40625 0 
L 45.40625 8.203125 
Q 42.578125 3.328125 38.25 0.953125 
Q 33.9375 -1.421875 27.875 -1.421875 
Q 17.96875 -1.421875 11.734375 6.484375 
Q 5.515625 14.40625 5.515625 27.296875 
Q 5.515625 40.1875 11.734375 48.09375 
Q 17.96875 56 27.875 56 
Q 33.9375 56 38.25 53.625 
Q 42.578125 51.265625 45.40625 46.390625 
z
M 14.796875 27.296875 
Q 14.796875 17.390625 18.875 11.75 
Q 22.953125 6.109375 30.078125 6.109375 
Q 37.203125 6.109375 41.296875 11.75 
Q 45.40625 17.390625 45.40625 27.296875 
Q 45.40625 37.203125 41.296875 42.84375 
Q 37.203125 48.484375 30.078125 48.484375 
Q 22.953125 48.484375 18.875 42.84375 
Q 14.796875 37.203125 14.796875 27.296875 
z
" id="DejaVuSans-100"/>
      <path d="M 54.890625 33.015625 
L 54.890625 0 
L 45.90625 0 
L 45.90625 32.71875 
Q 45.90625 40.484375 42.875 44.328125 
Q 39.84375 48.1875 33.796875 48.1875 
Q 26.515625 48.1875 22.3125 43.546875 
Q 18.109375 38.921875 18.109375 30.90625 
L 18.109375 0 
L 9.078125 0 
L 9.078125 75.984375 
L 18.109375 75.984375 
L 18.109375 46.1875 
Q 21.34375 51.125 25.703125 53.5625 
Q 30.078125 56 35.796875 56 
Q 45.21875 56 50.046875 50.171875 
Q 54.890625 44.34375 54.890625 33.015625 
z
" id="DejaVuSans-104"/>
     </defs>
     <g transform="translate(1665.527812 48.542486)scale(0.19 -0.19)">
      <use xlink:href="#DejaVuSans-111"/>
      <use x="61.181641" xlink:href="#DejaVuSans-100"/>
      <use x="124.658203" xlink:href="#DejaVuSans-100"/>
      <use x="188.134766" xlink:href="#DejaVuSans-32"/>
      <use x="219.921875" xlink:href="#DejaVuSans-98"/>
      <use x="283.398438" xlink:href="#DejaVuSans-105"/>
      <use x="311.181641" xlink:href="#DejaVuSans-114"/>
      <use x="352.294922" xlink:href="#DejaVuSans-116"/>
      <use x="391.503906" xlink:href="#DejaVuSans-104"/>
      <use x="454.882812" xlink:href="#DejaVuSans-115"/>
     </g>
    </g>
    <g id="PathCollection_4">
     <g>
      <use style="fill:#ff0000;stroke:#ff0000;" x="1631.327812" xlink:href="#m651004d16c" y="71.443423"/>
     </g>
    </g>
    <g id="text_18">
     <!-- odd deaths -->
     <g transform="translate(1665.527812 76.430923)scale(0.19 -0.19)">
      <use xlink:href="#DejaVuSans-111"/>
      <use x="61.181641" xlink:href="#DejaVuSans-100"/>
      <use x="124.658203" xlink:href="#DejaVuSans-100"/>
      <use x="188.134766" xlink:href="#DejaVuSans-32"/>
      <use x="219.921875" xlink:href="#DejaVuSans-100"/>
      <use x="283.398438" xlink:href="#DejaVuSans-101"/>
      <use x="344.921875" xlink:href="#DejaVuSans-97"/>
      <use x="406.201172" xlink:href="#DejaVuSans-116"/>
      <use x="445.410156" xlink:href="#DejaVuSans-104"/>
      <use x="508.789062" xlink:href="#DejaVuSans-115"/>
     </g>
    </g>
   </g>
  </g>
 </g>
 <defs>
  <clipPath id="p71f5944720">
   <rect height="489.194545" width="1712.65" x="76.55" y="17.005455"/>
  </clipPath>
 </defs>
</svg>
