<?xml version="1.0" encoding="utf-8" standalone="no"?>
<!DOCTYPE svg PUBLIC "-//W3C//DTD SVG 1.1//EN"
  "http://www.w3.org/Graphics/SVG/1.1/DTD/svg11.dtd">
<!-- Created with matplotlib (https://matplotlib.org/) -->
<svg height="576pt" version="1.1" viewBox="0 0 1152 576" width="1152pt" xmlns="http://www.w3.org/2000/svg" xmlns:xlink="http://www.w3.org/1999/xlink">
 <defs>
  <style type="text/css">
*{stroke-linecap:butt;stroke-linejoin:round;}
  </style>
 </defs>
 <g id="figure_1">
  <g id="patch_1">
   <path d="M 0 576 
L 1152 576 
L 1152 0 
L 0 0 
z
" style="fill:#ffffff;"/>
  </g>
  <g id="axes_1">
   <g id="patch_2">
    <path d="M 76.55 506.2 
L 1141.2 506.2 
L 1141.2 17.005455 
L 76.55 17.005455 
z
" style="fill:#ffffff;"/>
   </g>
   <g id="PathCollection_1">
    <defs>
     <path d="M 0 5 
C 1.326016 5 2.597899 4.473168 3.535534 3.535534 
C 4.473168 2.597899 5 1.326016 5 0 
C 5 -1.326016 4.473168 -2.597899 3.535534 -3.535534 
C 2.597899 -4.473168 1.326016 -5 0 -5 
C -1.326016 -5 -2.597899 -4.473168 -3.535534 -3.535534 
C -4.473168 -2.597899 -5 -1.326016 -5 0 
C -5 1.326016 -4.473168 2.597899 -3.535534 3.535534 
C -2.597899 4.473168 -1.326016 5 0 5 
z
" id="m2375ec77f9" style="stroke:#0000ff;"/>
    </defs>
    <g clip-path="url(#p36c116ddb8)">
     <use style="fill:#0000ff;stroke:#0000ff;" x="475.221738" xlink:href="#m2375ec77f9" y="372.783306"/>
     <use style="fill:#0000ff;stroke:#0000ff;" x="665.793921" xlink:href="#m2375ec77f9" y="372.783306"/>
     <use style="fill:#0000ff;stroke:#0000ff;" x="666.009014" xlink:href="#m2375ec77f9" y="372.783306"/>
     <use style="fill:#0000ff;stroke:#0000ff;" x="736.07548" xlink:href="#m2375ec77f9" y="372.783306"/>
     <use style="fill:#0000ff;stroke:#0000ff;" x="859.592496" xlink:href="#m2375ec77f9" y="335.723113"/>
     <use style="fill:#0000ff;stroke:#0000ff;" x="892.8781" xlink:href="#m2375ec77f9" y="372.783306"/>
     <use style="fill:#0000ff;stroke:#0000ff;" x="897.072409" xlink:href="#m2375ec77f9" y="372.783306"/>
     <use style="fill:#0000ff;stroke:#0000ff;" x="1054.7354" xlink:href="#m2375ec77f9" y="335.723113"/>
     <use style="fill:#0000ff;stroke:#0000ff;" x="1063.231564" xlink:href="#m2375ec77f9" y="372.783306"/>
     <use style="fill:#0000ff;stroke:#0000ff;" x="1063.66175" xlink:href="#m2375ec77f9" y="372.783306"/>
    </g>
   </g>
   <g id="PathCollection_2">
    <defs>
     <path d="M 0 5 
C 1.326016 5 2.597899 4.473168 3.535534 3.535534 
C 4.473168 2.597899 5 1.326016 5 0 
C 5 -1.326016 4.473168 -2.597899 3.535534 -3.535534 
C 2.597899 -4.473168 1.326016 -5 0 -5 
C -1.326016 -5 -2.597899 -4.473168 -3.535534 -3.535534 
C -4.473168 -2.597899 -5 -1.326016 -5 0 
C -5 1.326016 -4.473168 2.597899 -3.535534 3.535534 
C -2.597899 4.473168 -1.326016 5 0 5 
z
" id="ma016f5d30b" style="stroke:#ff0000;"/>
    </defs>
    <g clip-path="url(#p36c116ddb8)">
     <use style="fill:#ff0000;stroke:#ff0000;" x="474.737779" xlink:href="#ma016f5d30b" y="391.313402"/>
     <use style="fill:#ff0000;stroke:#ff0000;" x="665.202416" xlink:href="#ma016f5d30b" y="391.313402"/>
     <use style="fill:#ff0000;stroke:#ff0000;" x="665.955241" xlink:href="#ma016f5d30b" y="391.313402"/>
     <use style="fill:#ff0000;stroke:#ff0000;" x="736.021706" xlink:href="#ma016f5d30b" y="391.313402"/>
     <use style="fill:#ff0000;stroke:#ff0000;" x="858.893444" xlink:href="#ma016f5d30b" y="354.253209"/>
     <use style="fill:#ff0000;stroke:#ff0000;" x="892.232822" xlink:href="#ma016f5d30b" y="391.313402"/>
     <use style="fill:#ff0000;stroke:#ff0000;" x="896.42713" xlink:href="#ma016f5d30b" y="391.313402"/>
     <use style="fill:#ff0000;stroke:#ff0000;" x="1054.090122" xlink:href="#ma016f5d30b" y="354.253209"/>
     <use style="fill:#ff0000;stroke:#ff0000;" x="1062.586286" xlink:href="#ma016f5d30b" y="391.313402"/>
     <use style="fill:#ff0000;stroke:#ff0000;" x="1063.50043" xlink:href="#ma016f5d30b" y="391.313402"/>
    </g>
   </g>
   <g id="matplotlib.axis_1">
    <g id="xtick_1">
     <g id="line2d_1">
      <defs>
       <path d="M 0 0 
L 0 3.5 
" id="mb6d1b35bfd" style="stroke:#000000;stroke-width:0.8;"/>
      </defs>
      <g>
       <use style="stroke:#000000;stroke-width:0.8;" x="124.889409" xlink:href="#mb6d1b35bfd" y="506.2"/>
      </g>
     </g>
     <g id="text_1">
      <!-- 0 -->
      <defs>
       <path d="M 31.78125 66.40625 
Q 24.171875 66.40625 20.328125 58.90625 
Q 16.5 51.421875 16.5 36.375 
Q 16.5 21.390625 20.328125 13.890625 
Q 24.171875 6.390625 31.78125 6.390625 
Q 39.453125 6.390625 43.28125 13.890625 
Q 47.125 21.390625 47.125 36.375 
Q 47.125 51.421875 43.28125 58.90625 
Q 39.453125 66.40625 31.78125 66.40625 
z
M 31.78125 74.21875 
Q 44.046875 74.21875 50.515625 64.515625 
Q 56.984375 54.828125 56.984375 36.375 
Q 56.984375 17.96875 50.515625 8.265625 
Q 44.046875 -1.421875 31.78125 -1.421875 
Q 19.53125 -1.421875 13.0625 8.265625 
Q 6.59375 17.96875 6.59375 36.375 
Q 6.59375 54.828125 13.0625 64.515625 
Q 19.53125 74.21875 31.78125 74.21875 
z
" id="DejaVuSans-48"/>
      </defs>
      <g transform="translate(117.254409 531.43625)scale(0.24 -0.24)">
       <use xlink:href="#DejaVuSans-48"/>
      </g>
     </g>
    </g>
    <g id="xtick_2">
     <g id="line2d_2">
      <g>
       <use style="stroke:#000000;stroke-width:0.8;" x="259.322382" xlink:href="#mb6d1b35bfd" y="506.2"/>
      </g>
     </g>
     <g id="text_2">
      <!-- 250 -->
      <defs>
       <path d="M 19.1875 8.296875 
L 53.609375 8.296875 
L 53.609375 0 
L 7.328125 0 
L 7.328125 8.296875 
Q 12.9375 14.109375 22.625 23.890625 
Q 32.328125 33.6875 34.8125 36.53125 
Q 39.546875 41.84375 41.421875 45.53125 
Q 43.3125 49.21875 43.3125 52.78125 
Q 43.3125 58.59375 39.234375 62.25 
Q 35.15625 65.921875 28.609375 65.921875 
Q 23.96875 65.921875 18.8125 64.3125 
Q 13.671875 62.703125 7.8125 59.421875 
L 7.8125 69.390625 
Q 13.765625 71.78125 18.9375 73 
Q 24.125 74.21875 28.421875 74.21875 
Q 39.75 74.21875 46.484375 68.546875 
Q 53.21875 62.890625 53.21875 53.421875 
Q 53.21875 48.921875 51.53125 44.890625 
Q 49.859375 40.875 45.40625 35.40625 
Q 44.1875 33.984375 37.640625 27.21875 
Q 31.109375 20.453125 19.1875 8.296875 
z
" id="DejaVuSans-50"/>
       <path d="M 10.796875 72.90625 
L 49.515625 72.90625 
L 49.515625 64.59375 
L 19.828125 64.59375 
L 19.828125 46.734375 
Q 21.96875 47.46875 24.109375 47.828125 
Q 26.265625 48.1875 28.421875 48.1875 
Q 40.625 48.1875 47.75 41.5 
Q 54.890625 34.8125 54.890625 23.390625 
Q 54.890625 11.625 47.5625 5.09375 
Q 40.234375 -1.421875 26.90625 -1.421875 
Q 22.3125 -1.421875 17.546875 -0.640625 
Q 12.796875 0.140625 7.71875 1.703125 
L 7.71875 11.625 
Q 12.109375 9.234375 16.796875 8.0625 
Q 21.484375 6.890625 26.703125 6.890625 
Q 35.15625 6.890625 40.078125 11.328125 
Q 45.015625 15.765625 45.015625 23.390625 
Q 45.015625 31 40.078125 35.4375 
Q 35.15625 39.890625 26.703125 39.890625 
Q 22.75 39.890625 18.8125 39.015625 
Q 14.890625 38.140625 10.796875 36.28125 
z
" id="DejaVuSans-53"/>
      </defs>
      <g transform="translate(236.417382 531.43625)scale(0.24 -0.24)">
       <use xlink:href="#DejaVuSans-50"/>
       <use x="63.623047" xlink:href="#DejaVuSans-53"/>
       <use x="127.246094" xlink:href="#DejaVuSans-48"/>
      </g>
     </g>
    </g>
    <g id="xtick_3">
     <g id="line2d_3">
      <g>
       <use style="stroke:#000000;stroke-width:0.8;" x="393.755356" xlink:href="#mb6d1b35bfd" y="506.2"/>
      </g>
     </g>
     <g id="text_3">
      <!-- 500 -->
      <g transform="translate(370.850356 531.43625)scale(0.24 -0.24)">
       <use xlink:href="#DejaVuSans-53"/>
       <use x="63.623047" xlink:href="#DejaVuSans-48"/>
       <use x="127.246094" xlink:href="#DejaVuSans-48"/>
      </g>
     </g>
    </g>
    <g id="xtick_4">
     <g id="line2d_4">
      <g>
       <use style="stroke:#000000;stroke-width:0.8;" x="528.188329" xlink:href="#mb6d1b35bfd" y="506.2"/>
      </g>
     </g>
     <g id="text_4">
      <!-- 750 -->
      <defs>
       <path d="M 8.203125 72.90625 
L 55.078125 72.90625 
L 55.078125 68.703125 
L 28.609375 0 
L 18.3125 0 
L 43.21875 64.59375 
L 8.203125 64.59375 
z
" id="DejaVuSans-55"/>
      </defs>
      <g transform="translate(505.283329 531.43625)scale(0.24 -0.24)">
       <use xlink:href="#DejaVuSans-55"/>
       <use x="63.623047" xlink:href="#DejaVuSans-53"/>
       <use x="127.246094" xlink:href="#DejaVuSans-48"/>
      </g>
     </g>
    </g>
    <g id="xtick_5">
     <g id="line2d_5">
      <g>
       <use style="stroke:#000000;stroke-width:0.8;" x="662.621303" xlink:href="#mb6d1b35bfd" y="506.2"/>
      </g>
     </g>
     <g id="text_5">
      <!-- 1000 -->
      <defs>
       <path d="M 12.40625 8.296875 
L 28.515625 8.296875 
L 28.515625 63.921875 
L 10.984375 60.40625 
L 10.984375 69.390625 
L 28.421875 72.90625 
L 38.28125 72.90625 
L 38.28125 8.296875 
L 54.390625 8.296875 
L 54.390625 0 
L 12.40625 0 
z
" id="DejaVuSans-49"/>
      </defs>
      <g transform="translate(632.081303 531.43625)scale(0.24 -0.24)">
       <use xlink:href="#DejaVuSans-49"/>
       <use x="63.623047" xlink:href="#DejaVuSans-48"/>
       <use x="127.246094" xlink:href="#DejaVuSans-48"/>
       <use x="190.869141" xlink:href="#DejaVuSans-48"/>
      </g>
     </g>
    </g>
    <g id="xtick_6">
     <g id="line2d_6">
      <g>
       <use style="stroke:#000000;stroke-width:0.8;" x="797.054276" xlink:href="#mb6d1b35bfd" y="506.2"/>
      </g>
     </g>
     <g id="text_6">
      <!-- 1250 -->
      <g transform="translate(766.514276 531.43625)scale(0.24 -0.24)">
       <use xlink:href="#DejaVuSans-49"/>
       <use x="63.623047" xlink:href="#DejaVuSans-50"/>
       <use x="127.246094" xlink:href="#DejaVuSans-53"/>
       <use x="190.869141" xlink:href="#DejaVuSans-48"/>
      </g>
     </g>
    </g>
    <g id="xtick_7">
     <g id="line2d_7">
      <g>
       <use style="stroke:#000000;stroke-width:0.8;" x="931.48725" xlink:href="#mb6d1b35bfd" y="506.2"/>
      </g>
     </g>
     <g id="text_7">
      <!-- 1500 -->
      <g transform="translate(900.94725 531.43625)scale(0.24 -0.24)">
       <use xlink:href="#DejaVuSans-49"/>
       <use x="63.623047" xlink:href="#DejaVuSans-53"/>
       <use x="127.246094" xlink:href="#DejaVuSans-48"/>
       <use x="190.869141" xlink:href="#DejaVuSans-48"/>
      </g>
     </g>
    </g>
    <g id="xtick_8">
     <g id="line2d_8">
      <g>
       <use style="stroke:#000000;stroke-width:0.8;" x="1065.920223" xlink:href="#mb6d1b35bfd" y="506.2"/>
      </g>
     </g>
     <g id="text_8">
      <!-- 1750 -->
      <g transform="translate(1035.380223 531.43625)scale(0.24 -0.24)">
       <use xlink:href="#DejaVuSans-49"/>
       <use x="63.623047" xlink:href="#DejaVuSans-55"/>
       <use x="127.246094" xlink:href="#DejaVuSans-53"/>
       <use x="190.869141" xlink:href="#DejaVuSans-48"/>
      </g>
     </g>
    </g>
    <g id="text_9">
     <!-- time -->
     <defs>
      <path d="M 18.3125 70.21875 
L 18.3125 54.6875 
L 36.8125 54.6875 
L 36.8125 47.703125 
L 18.3125 47.703125 
L 18.3125 18.015625 
Q 18.3125 11.328125 20.140625 9.421875 
Q 21.96875 7.515625 27.59375 7.515625 
L 36.8125 7.515625 
L 36.8125 0 
L 27.59375 0 
Q 17.1875 0 13.234375 3.875 
Q 9.28125 7.765625 9.28125 18.015625 
L 9.28125 47.703125 
L 2.6875 47.703125 
L 2.6875 54.6875 
L 9.28125 54.6875 
L 9.28125 70.21875 
z
" id="DejaVuSans-116"/>
      <path d="M 9.421875 54.6875 
L 18.40625 54.6875 
L 18.40625 0 
L 9.421875 0 
z
M 9.421875 75.984375 
L 18.40625 75.984375 
L 18.40625 64.59375 
L 9.421875 64.59375 
z
" id="DejaVuSans-105"/>
      <path d="M 52 44.1875 
Q 55.375 50.25 60.0625 53.125 
Q 64.75 56 71.09375 56 
Q 79.640625 56 84.28125 50.015625 
Q 88.921875 44.046875 88.921875 33.015625 
L 88.921875 0 
L 79.890625 0 
L 79.890625 32.71875 
Q 79.890625 40.578125 77.09375 44.375 
Q 74.3125 48.1875 68.609375 48.1875 
Q 61.625 48.1875 57.5625 43.546875 
Q 53.515625 38.921875 53.515625 30.90625 
L 53.515625 0 
L 44.484375 0 
L 44.484375 32.71875 
Q 44.484375 40.625 41.703125 44.40625 
Q 38.921875 48.1875 33.109375 48.1875 
Q 26.21875 48.1875 22.15625 43.53125 
Q 18.109375 38.875 18.109375 30.90625 
L 18.109375 0 
L 9.078125 0 
L 9.078125 54.6875 
L 18.109375 54.6875 
L 18.109375 46.1875 
Q 21.1875 51.21875 25.484375 53.609375 
Q 29.78125 56 35.6875 56 
Q 41.65625 56 45.828125 52.96875 
Q 50 49.953125 52 44.1875 
z
" id="DejaVuSans-109"/>
      <path d="M 56.203125 29.59375 
L 56.203125 25.203125 
L 14.890625 25.203125 
Q 15.484375 15.921875 20.484375 11.0625 
Q 25.484375 6.203125 34.421875 6.203125 
Q 39.59375 6.203125 44.453125 7.46875 
Q 49.3125 8.734375 54.109375 11.28125 
L 54.109375 2.78125 
Q 49.265625 0.734375 44.1875 -0.34375 
Q 39.109375 -1.421875 33.890625 -1.421875 
Q 20.796875 -1.421875 13.15625 6.1875 
Q 5.515625 13.8125 5.515625 26.8125 
Q 5.515625 40.234375 12.765625 48.109375 
Q 20.015625 56 32.328125 56 
Q 43.359375 56 49.78125 48.890625 
Q 56.203125 41.796875 56.203125 29.59375 
z
M 47.21875 32.234375 
Q 47.125 39.59375 43.09375 43.984375 
Q 39.0625 48.390625 32.421875 48.390625 
Q 24.90625 48.390625 20.390625 44.140625 
Q 15.875 39.890625 15.1875 32.171875 
z
" id="DejaVuSans-101"/>
     </defs>
     <g transform="translate(581.764375 558.66375)scale(0.24 -0.24)">
      <use xlink:href="#DejaVuSans-116"/>
      <use x="39.208984" xlink:href="#DejaVuSans-105"/>
      <use x="66.992188" xlink:href="#DejaVuSans-109"/>
      <use x="164.404297" xlink:href="#DejaVuSans-101"/>
     </g>
    </g>
   </g>
   <g id="matplotlib.axis_2">
    <g id="ytick_1">
     <g id="line2d_9">
      <defs>
       <path d="M 0 0 
L -3.5 0 
" id="mf51bdd338e" style="stroke:#000000;stroke-width:0.8;"/>
      </defs>
      <g>
       <use style="stroke:#000000;stroke-width:0.8;" x="76.55" xlink:href="#mf51bdd338e" y="483.963884"/>
      </g>
     </g>
     <g id="text_10">
      <!-- 0 -->
      <g transform="translate(54.28 493.082009)scale(0.24 -0.24)">
       <use xlink:href="#DejaVuSans-48"/>
      </g>
     </g>
    </g>
    <g id="ytick_2">
     <g id="line2d_10">
      <g>
       <use style="stroke:#000000;stroke-width:0.8;" x="76.55" xlink:href="#mf51bdd338e" y="391.313402"/>
      </g>
     </g>
     <g id="text_11">
      <!-- 5 -->
      <g transform="translate(54.28 400.431527)scale(0.24 -0.24)">
       <use xlink:href="#DejaVuSans-53"/>
      </g>
     </g>
    </g>
    <g id="ytick_3">
     <g id="line2d_11">
      <g>
       <use style="stroke:#000000;stroke-width:0.8;" x="76.55" xlink:href="#mf51bdd338e" y="298.66292"/>
      </g>
     </g>
     <g id="text_12">
      <!-- 10 -->
      <g transform="translate(39.01 307.781045)scale(0.24 -0.24)">
       <use xlink:href="#DejaVuSans-49"/>
       <use x="63.623047" xlink:href="#DejaVuSans-48"/>
      </g>
     </g>
    </g>
    <g id="ytick_4">
     <g id="line2d_12">
      <g>
       <use style="stroke:#000000;stroke-width:0.8;" x="76.55" xlink:href="#mf51bdd338e" y="206.012438"/>
      </g>
     </g>
     <g id="text_13">
      <!-- 15 -->
      <g transform="translate(39.01 215.130563)scale(0.24 -0.24)">
       <use xlink:href="#DejaVuSans-49"/>
       <use x="63.623047" xlink:href="#DejaVuSans-53"/>
      </g>
     </g>
    </g>
    <g id="ytick_5">
     <g id="line2d_13">
      <g>
       <use style="stroke:#000000;stroke-width:0.8;" x="76.55" xlink:href="#mf51bdd338e" y="113.361956"/>
      </g>
     </g>
     <g id="text_14">
      <!-- 20 -->
      <g transform="translate(39.01 122.480081)scale(0.24 -0.24)">
       <use xlink:href="#DejaVuSans-50"/>
       <use x="63.623047" xlink:href="#DejaVuSans-48"/>
      </g>
     </g>
    </g>
    <g id="ytick_6">
     <g id="line2d_14">
      <g>
       <use style="stroke:#000000;stroke-width:0.8;" x="76.55" xlink:href="#mf51bdd338e" y="20.711474"/>
      </g>
     </g>
     <g id="text_15">
      <!-- 25 -->
      <g transform="translate(39.01 29.829599)scale(0.24 -0.24)">
       <use xlink:href="#DejaVuSans-50"/>
       <use x="63.623047" xlink:href="#DejaVuSans-53"/>
      </g>
     </g>
    </g>
    <g id="text_16">
     <!-- number of spiral tips -->
     <defs>
      <path d="M 54.890625 33.015625 
L 54.890625 0 
L 45.90625 0 
L 45.90625 32.71875 
Q 45.90625 40.484375 42.875 44.328125 
Q 39.84375 48.1875 33.796875 48.1875 
Q 26.515625 48.1875 22.3125 43.546875 
Q 18.109375 38.921875 18.109375 30.90625 
L 18.109375 0 
L 9.078125 0 
L 9.078125 54.6875 
L 18.109375 54.6875 
L 18.109375 46.1875 
Q 21.34375 51.125 25.703125 53.5625 
Q 30.078125 56 35.796875 56 
Q 45.21875 56 50.046875 50.171875 
Q 54.890625 44.34375 54.890625 33.015625 
z
" id="DejaVuSans-110"/>
      <path d="M 8.5 21.578125 
L 8.5 54.6875 
L 17.484375 54.6875 
L 17.484375 21.921875 
Q 17.484375 14.15625 20.5 10.265625 
Q 23.53125 6.390625 29.59375 6.390625 
Q 36.859375 6.390625 41.078125 11.03125 
Q 45.3125 15.671875 45.3125 23.6875 
L 45.3125 54.6875 
L 54.296875 54.6875 
L 54.296875 0 
L 45.3125 0 
L 45.3125 8.40625 
Q 42.046875 3.421875 37.71875 1 
Q 33.40625 -1.421875 27.6875 -1.421875 
Q 18.265625 -1.421875 13.375 4.4375 
Q 8.5 10.296875 8.5 21.578125 
z
M 31.109375 56 
z
" id="DejaVuSans-117"/>
      <path d="M 48.6875 27.296875 
Q 48.6875 37.203125 44.609375 42.84375 
Q 40.53125 48.484375 33.40625 48.484375 
Q 26.265625 48.484375 22.1875 42.84375 
Q 18.109375 37.203125 18.109375 27.296875 
Q 18.109375 17.390625 22.1875 11.75 
Q 26.265625 6.109375 33.40625 6.109375 
Q 40.53125 6.109375 44.609375 11.75 
Q 48.6875 17.390625 48.6875 27.296875 
z
M 18.109375 46.390625 
Q 20.953125 51.265625 25.265625 53.625 
Q 29.59375 56 35.59375 56 
Q 45.5625 56 51.78125 48.09375 
Q 58.015625 40.1875 58.015625 27.296875 
Q 58.015625 14.40625 51.78125 6.484375 
Q 45.5625 -1.421875 35.59375 -1.421875 
Q 29.59375 -1.421875 25.265625 0.953125 
Q 20.953125 3.328125 18.109375 8.203125 
L 18.109375 0 
L 9.078125 0 
L 9.078125 75.984375 
L 18.109375 75.984375 
z
" id="DejaVuSans-98"/>
      <path d="M 41.109375 46.296875 
Q 39.59375 47.171875 37.8125 47.578125 
Q 36.03125 48 33.890625 48 
Q 26.265625 48 22.1875 43.046875 
Q 18.109375 38.09375 18.109375 28.8125 
L 18.109375 0 
L 9.078125 0 
L 9.078125 54.6875 
L 18.109375 54.6875 
L 18.109375 46.1875 
Q 20.953125 51.171875 25.484375 53.578125 
Q 30.03125 56 36.53125 56 
Q 37.453125 56 38.578125 55.875 
Q 39.703125 55.765625 41.0625 55.515625 
z
" id="DejaVuSans-114"/>
      <path id="DejaVuSans-32"/>
      <path d="M 30.609375 48.390625 
Q 23.390625 48.390625 19.1875 42.75 
Q 14.984375 37.109375 14.984375 27.296875 
Q 14.984375 17.484375 19.15625 11.84375 
Q 23.34375 6.203125 30.609375 6.203125 
Q 37.796875 6.203125 41.984375 11.859375 
Q 46.1875 17.53125 46.1875 27.296875 
Q 46.1875 37.015625 41.984375 42.703125 
Q 37.796875 48.390625 30.609375 48.390625 
z
M 30.609375 56 
Q 42.328125 56 49.015625 48.375 
Q 55.71875 40.765625 55.71875 27.296875 
Q 55.71875 13.875 49.015625 6.21875 
Q 42.328125 -1.421875 30.609375 -1.421875 
Q 18.84375 -1.421875 12.171875 6.21875 
Q 5.515625 13.875 5.515625 27.296875 
Q 5.515625 40.765625 12.171875 48.375 
Q 18.84375 56 30.609375 56 
z
" id="DejaVuSans-111"/>
      <path d="M 37.109375 75.984375 
L 37.109375 68.5 
L 28.515625 68.5 
Q 23.6875 68.5 21.796875 66.546875 
Q 19.921875 64.59375 19.921875 59.515625 
L 19.921875 54.6875 
L 34.71875 54.6875 
L 34.71875 47.703125 
L 19.921875 47.703125 
L 19.921875 0 
L 10.890625 0 
L 10.890625 47.703125 
L 2.296875 47.703125 
L 2.296875 54.6875 
L 10.890625 54.6875 
L 10.890625 58.5 
Q 10.890625 67.625 15.140625 71.796875 
Q 19.390625 75.984375 28.609375 75.984375 
z
" id="DejaVuSans-102"/>
      <path d="M 44.28125 53.078125 
L 44.28125 44.578125 
Q 40.484375 46.53125 36.375 47.5 
Q 32.28125 48.484375 27.875 48.484375 
Q 21.1875 48.484375 17.84375 46.4375 
Q 14.5 44.390625 14.5 40.28125 
Q 14.5 37.15625 16.890625 35.375 
Q 19.28125 33.59375 26.515625 31.984375 
L 29.59375 31.296875 
Q 39.15625 29.25 43.1875 25.515625 
Q 47.21875 21.78125 47.21875 15.09375 
Q 47.21875 7.46875 41.1875 3.015625 
Q 35.15625 -1.421875 24.609375 -1.421875 
Q 20.21875 -1.421875 15.453125 -0.5625 
Q 10.6875 0.296875 5.421875 2 
L 5.421875 11.28125 
Q 10.40625 8.6875 15.234375 7.390625 
Q 20.0625 6.109375 24.8125 6.109375 
Q 31.15625 6.109375 34.5625 8.28125 
Q 37.984375 10.453125 37.984375 14.40625 
Q 37.984375 18.0625 35.515625 20.015625 
Q 33.0625 21.96875 24.703125 23.78125 
L 21.578125 24.515625 
Q 13.234375 26.265625 9.515625 29.90625 
Q 5.8125 33.546875 5.8125 39.890625 
Q 5.8125 47.609375 11.28125 51.796875 
Q 16.75 56 26.8125 56 
Q 31.78125 56 36.171875 55.265625 
Q 40.578125 54.546875 44.28125 53.078125 
z
" id="DejaVuSans-115"/>
      <path d="M 18.109375 8.203125 
L 18.109375 -20.796875 
L 9.078125 -20.796875 
L 9.078125 54.6875 
L 18.109375 54.6875 
L 18.109375 46.390625 
Q 20.953125 51.265625 25.265625 53.625 
Q 29.59375 56 35.59375 56 
Q 45.5625 56 51.78125 48.09375 
Q 58.015625 40.1875 58.015625 27.296875 
Q 58.015625 14.40625 51.78125 6.484375 
Q 45.5625 -1.421875 35.59375 -1.421875 
Q 29.59375 -1.421875 25.265625 0.953125 
Q 20.953125 3.328125 18.109375 8.203125 
z
M 48.6875 27.296875 
Q 48.6875 37.203125 44.609375 42.84375 
Q 40.53125 48.484375 33.40625 48.484375 
Q 26.265625 48.484375 22.1875 42.84375 
Q 18.109375 37.203125 18.109375 27.296875 
Q 18.109375 17.390625 22.1875 11.75 
Q 26.265625 6.109375 33.40625 6.109375 
Q 40.53125 6.109375 44.609375 11.75 
Q 48.6875 17.390625 48.6875 27.296875 
z
" id="DejaVuSans-112"/>
      <path d="M 34.28125 27.484375 
Q 23.390625 27.484375 19.1875 25 
Q 14.984375 22.515625 14.984375 16.5 
Q 14.984375 11.71875 18.140625 8.90625 
Q 21.296875 6.109375 26.703125 6.109375 
Q 34.1875 6.109375 38.703125 11.40625 
Q 43.21875 16.703125 43.21875 25.484375 
L 43.21875 27.484375 
z
M 52.203125 31.203125 
L 52.203125 0 
L 43.21875 0 
L 43.21875 8.296875 
Q 40.140625 3.328125 35.546875 0.953125 
Q 30.953125 -1.421875 24.3125 -1.421875 
Q 15.921875 -1.421875 10.953125 3.296875 
Q 6 8.015625 6 15.921875 
Q 6 25.140625 12.171875 29.828125 
Q 18.359375 34.515625 30.609375 34.515625 
L 43.21875 34.515625 
L 43.21875 35.40625 
Q 43.21875 41.609375 39.140625 45 
Q 35.0625 48.390625 27.6875 48.390625 
Q 23 48.390625 18.546875 47.265625 
Q 14.109375 46.140625 10.015625 43.890625 
L 10.015625 52.203125 
Q 14.9375 54.109375 19.578125 55.046875 
Q 24.21875 56 28.609375 56 
Q 40.484375 56 46.34375 49.84375 
Q 52.203125 43.703125 52.203125 31.203125 
z
" id="DejaVuSans-97"/>
      <path d="M 9.421875 75.984375 
L 18.40625 75.984375 
L 18.40625 0 
L 9.421875 0 
z
" id="DejaVuSans-108"/>
     </defs>
     <g transform="translate(30.01875 386.175852)rotate(-90)scale(0.24 -0.24)">
      <use xlink:href="#DejaVuSans-110"/>
      <use x="63.378906" xlink:href="#DejaVuSans-117"/>
      <use x="126.757812" xlink:href="#DejaVuSans-109"/>
      <use x="224.169922" xlink:href="#DejaVuSans-98"/>
      <use x="287.646484" xlink:href="#DejaVuSans-101"/>
      <use x="349.169922" xlink:href="#DejaVuSans-114"/>
      <use x="390.283203" xlink:href="#DejaVuSans-32"/>
      <use x="422.070312" xlink:href="#DejaVuSans-111"/>
      <use x="483.251953" xlink:href="#DejaVuSans-102"/>
      <use x="518.457031" xlink:href="#DejaVuSans-32"/>
      <use x="550.244141" xlink:href="#DejaVuSans-115"/>
      <use x="602.34375" xlink:href="#DejaVuSans-112"/>
      <use x="665.820312" xlink:href="#DejaVuSans-105"/>
      <use x="693.603516" xlink:href="#DejaVuSans-114"/>
      <use x="734.716797" xlink:href="#DejaVuSans-97"/>
      <use x="795.996094" xlink:href="#DejaVuSans-108"/>
      <use x="823.779297" xlink:href="#DejaVuSans-32"/>
      <use x="855.566406" xlink:href="#DejaVuSans-116"/>
      <use x="894.775391" xlink:href="#DejaVuSans-105"/>
      <use x="922.558594" xlink:href="#DejaVuSans-112"/>
      <use x="986.035156" xlink:href="#DejaVuSans-115"/>
     </g>
    </g>
   </g>
   <g id="line2d_15">
    <path clip-path="url(#p36c116ddb8)" d="M 124.943182 483.963884 
L 125.104501 483.963884 
L 125.158275 335.723113 
L 125.212048 446.903691 
L 176.565444 446.903691 
L 176.726763 409.843499 
L 176.888083 446.903691 
L 176.941856 446.903691 
L 177.156949 372.783306 
L 177.264495 372.783306 
L 177.425815 409.843499 
L 177.533361 409.843499 
L 177.748454 335.723113 
L 177.909773 372.783306 
L 214.636862 372.783306 
L 214.744408 335.723113 
L 214.905728 372.783306 
L 215.228367 372.783306 
L 215.389686 335.723113 
L 215.551006 372.783306 
L 215.658552 372.783306 
L 215.819872 335.723113 
L 215.927418 335.723113 
L 216.196284 224.542534 
L 216.250057 224.542534 
L 216.357604 298.66292 
L 216.518923 187.482342 
L 216.572697 187.482342 
L 216.734016 261.602727 
L 216.841563 224.542534 
L 217.002882 261.602727 
L 218.669851 261.602727 
L 218.723624 224.542534 
L 218.777397 261.602727 
L 222.810387 261.602727 
L 222.971706 224.542534 
L 223.079253 261.602727 
L 223.133026 224.542534 
L 223.186799 261.602727 
L 223.240572 298.66292 
L 223.294345 261.602727 
L 223.348118 261.602727 
L 223.509438 335.723113 
L 223.616984 298.66292 
L 223.778304 335.723113 
L 235.715952 335.723113 
L 235.877272 372.783306 
L 236.791416 372.783306 
L 236.952735 409.843499 
L 308.578624 409.843499 
L 308.739943 446.903691 
L 417.09292 446.903691 
L 417.25424 409.843499 
L 417.308013 446.903691 
L 417.361786 409.843499 
L 417.523105 372.783306 
L 417.576879 372.783306 
L 417.738198 409.843499 
L 417.899518 372.783306 
L 436.021083 372.783306 
L 436.074856 335.723113 
L 436.128629 372.783306 
L 436.397495 372.783306 
L 436.451268 261.602727 
L 436.505041 372.783306 
L 436.720134 372.783306 
L 436.773907 298.66292 
L 436.82768 372.783306 
L 474.684006 372.783306 
L 474.845325 391.313402 
L 475.167965 391.313402 
L 475.275511 372.783306 
L 475.43683 409.843499 
L 478.770768 409.843499 
L 478.824541 335.723113 
L 478.878315 409.843499 
L 481.244335 409.843499 
L 481.351881 372.783306 
L 481.513201 409.843499 
L 481.83584 409.843499 
L 481.99716 372.783306 
L 482.050933 372.783306 
L 482.212252 409.843499 
L 482.319799 409.843499 
L 482.373572 372.783306 
L 482.427345 409.843499 
L 482.481118 409.843499 
L 482.642438 372.783306 
L 482.803757 409.843499 
L 483.072623 409.843499 
L 483.233943 372.783306 
L 483.287716 372.783306 
L 483.449036 409.843499 
L 483.664128 409.843499 
L 483.825448 372.783306 
L 483.879221 372.783306 
L 484.040541 409.843499 
L 484.094314 372.783306 
L 484.148087 409.843499 
L 484.309407 409.843499 
L 484.470726 372.783306 
L 484.524499 372.783306 
L 484.632046 409.843499 
L 484.685819 335.723113 
L 484.739592 409.843499 
L 484.847139 409.843499 
L 484.900912 298.66292 
L 484.954685 372.783306 
L 485.277324 372.783306 
L 485.38487 409.843499 
L 485.438644 335.723113 
L 485.492417 372.783306 
L 485.54619 372.783306 
L 485.761283 298.66292 
L 485.815056 372.783306 
L 485.868829 335.723113 
L 485.922602 224.542534 
L 485.976376 409.843499 
L 486.030149 335.723113 
L 486.083922 335.723113 
L 486.191468 409.843499 
L 486.245242 224.542534 
L 486.299015 335.723113 
L 486.460334 335.723113 
L 486.514107 261.602727 
L 486.567881 335.723113 
L 486.621654 298.66292 
L 486.675427 335.723113 
L 486.7292 372.783306 
L 486.782973 335.723113 
L 486.836747 298.66292 
L 486.89052 335.723113 
L 486.998066 372.783306 
L 487.105613 298.66292 
L 487.266932 335.723113 
L 487.320705 335.723113 
L 487.374479 261.602727 
L 487.428252 335.723113 
L 487.535798 335.723113 
L 487.589571 298.66292 
L 487.643344 335.723113 
L 487.697118 335.723113 
L 487.750891 261.602727 
L 487.804664 335.723113 
L 487.91221 335.723113 
L 487.965984 298.66292 
L 488.019757 335.723113 
L 488.07353 335.723113 
L 488.127303 224.542534 
L 488.181076 298.66292 
L 488.342396 335.723113 
L 488.503715 335.723113 
L 488.718808 261.602727 
L 488.880128 335.723113 
L 489.095221 335.723113 
L 489.148994 298.66292 
L 489.202767 335.723113 
L 489.41786 335.723113 
L 489.471633 224.542534 
L 489.525406 335.723113 
L 489.686726 335.723113 
L 489.740499 298.66292 
L 489.794272 335.723113 
L 490.43955 335.723113 
L 490.493323 298.66292 
L 490.547097 335.723113 
L 496.946106 335.723113 
L 497.107426 298.66292 
L 497.268745 335.723113 
L 497.537611 335.723113 
L 497.752704 261.602727 
L 497.914024 298.66292 
L 498.129116 298.66292 
L 498.290436 224.542534 
L 498.344209 261.602727 
L 498.397982 224.542534 
L 498.451756 224.542534 
L 498.559302 298.66292 
L 498.774395 224.542534 
L 498.935714 261.602727 
L 499.097034 224.542534 
L 499.258353 224.542534 
L 499.312127 261.602727 
L 499.3659 224.542534 
L 499.580993 224.542534 
L 499.688539 150.422149 
L 499.742312 187.482342 
L 499.903632 261.602727 
L 500.011178 224.542534 
L 500.172498 261.602727 
L 500.226271 261.602727 
L 500.38759 187.482342 
L 500.54891 261.602727 
L 500.710229 224.542534 
L 500.871549 261.602727 
L 501.032869 224.542534 
L 501.086642 224.542534 
L 501.247961 261.602727 
L 501.516827 261.602727 
L 501.570601 224.542534 
L 501.624374 261.602727 
L 507.700744 261.602727 
L 507.754517 298.66292 
L 507.80829 261.602727 
L 508.13093 261.602727 
L 508.292249 298.66292 
L 508.346022 298.66292 
L 508.507342 261.602727 
L 508.614888 261.602727 
L 508.776208 298.66292 
L 508.937527 298.66292 
L 509.098847 261.602727 
L 509.260167 298.66292 
L 509.529033 298.66292 
L 509.582806 261.602727 
L 509.636579 298.66292 
L 510.066764 298.66292 
L 510.120538 261.602727 
L 510.174311 298.66292 
L 536.200534 298.66292 
L 536.361854 335.723113 
L 538.351462 335.723113 
L 538.405235 298.66292 
L 538.459008 335.723113 
L 555.34379 335.723113 
L 555.397563 298.66292 
L 555.451336 335.723113 
L 555.827749 335.723113 
L 555.881522 298.66292 
L 555.935295 335.723113 
L 556.204161 335.723113 
L 556.257934 261.602727 
L 556.311707 298.66292 
L 556.365481 298.66292 
L 556.5268 335.723113 
L 556.68812 335.723113 
L 556.741893 261.602727 
L 556.795666 298.66292 
L 556.903212 298.66292 
L 556.956986 335.723113 
L 557.010759 298.66292 
L 557.225852 298.66292 
L 557.279625 261.602727 
L 557.333398 298.66292 
L 557.440944 298.66292 
L 557.494718 261.602727 
L 557.548491 335.723113 
L 557.602264 298.66292 
L 557.656037 298.66292 
L 557.70981 224.542534 
L 557.763583 261.602727 
L 557.87113 335.723113 
L 557.924903 298.66292 
L 558.086223 113.361956 
L 558.247542 261.602727 
L 558.301315 39.24157 
L 558.355089 224.542534 
L 558.462635 261.602727 
L 558.570181 150.422149 
L 558.623954 224.542534 
L 558.677728 224.542534 
L 558.731501 187.482342 
L 558.89282 298.66292 
L 558.946594 298.66292 
L 559.000367 187.482342 
L 559.05414 261.602727 
L 559.107913 261.602727 
L 559.21546 298.66292 
L 559.323006 261.602727 
L 559.484326 298.66292 
L 559.806965 298.66292 
L 559.860738 187.482342 
L 559.914511 224.542534 
L 560.075831 298.66292 
L 560.129604 298.66292 
L 560.23715 261.602727 
L 560.39847 298.66292 
L 561.796573 298.66292 
L 561.850346 261.602727 
L 561.904119 298.66292 
L 562.172985 298.66292 
L 562.226758 261.602727 
L 562.280531 298.66292 
L 562.334305 298.66292 
L 562.388078 224.542534 
L 562.549397 335.723113 
L 562.76449 335.723113 
L 562.818263 298.66292 
L 562.872036 335.723113 
L 564.10882 335.723113 
L 564.162593 298.66292 
L 564.216366 335.723113 
L 564.270139 335.723113 
L 564.323913 298.66292 
L 564.377686 335.723113 
L 564.807871 335.723113 
L 564.861644 298.66292 
L 564.915418 335.723113 
L 566.743706 335.723113 
L 566.797479 298.66292 
L 566.851252 335.723113 
L 567.711623 335.723113 
L 567.765397 298.66292 
L 567.81917 335.723113 
L 568.518221 335.723113 
L 568.571995 298.66292 
L 568.625768 335.723113 
L 568.948407 335.723113 
L 569.00218 298.66292 
L 569.055953 335.723113 
L 570.238963 335.723113 
L 570.292737 298.66292 
L 570.34651 335.723113 
L 570.507829 335.723113 
L 570.561603 298.66292 
L 570.615376 335.723113 
L 571.475747 335.723113 
L 571.52952 298.66292 
L 571.583293 335.723113 
L 571.959705 335.723113 
L 572.013479 298.66292 
L 572.067252 335.723113 
L 572.443664 335.723113 
L 572.497437 298.66292 
L 572.551211 335.723113 
L 574.863458 335.723113 
L 574.917231 298.66292 
L 574.971004 335.723113 
L 575.723829 335.723113 
L 575.777602 298.66292 
L 575.831375 335.723113 
L 575.938921 335.723113 
L 576.046468 298.66292 
L 576.207787 335.723113 
L 577.175705 335.723113 
L 577.229478 298.66292 
L 577.283251 335.723113 
L 578.251169 335.723113 
L 578.304942 298.66292 
L 578.358715 335.723113 
L 580.778509 335.723113 
L 580.939828 298.66292 
L 581.047374 298.66292 
L 581.208694 335.723113 
L 581.63888 335.723113 
L 581.800199 298.66292 
L 582.015292 298.66292 
L 582.176611 335.723113 
L 582.230385 335.723113 
L 582.337931 298.66292 
L 582.391704 335.723113 
L 582.445477 298.66292 
L 584.0049 298.66292 
L 584.058673 261.602727 
L 584.112446 298.66292 
L 584.166219 298.66292 
L 584.273766 261.602727 
L 584.327539 298.66292 
L 584.381312 261.602727 
L 584.488859 261.602727 
L 584.542632 298.66292 
L 584.596405 261.602727 
L 589.05958 261.602727 
L 589.113353 224.542534 
L 589.167126 261.602727 
L 590.403909 261.602727 
L 590.511456 335.723113 
L 590.565229 261.602727 
L 590.619002 298.66292 
L 590.672775 372.783306 
L 590.726549 335.723113 
L 590.780322 298.66292 
L 590.887868 372.783306 
L 591.049188 335.723113 
L 591.210507 372.783306 
L 591.26428 372.783306 
L 591.4256 409.843499 
L 606.804732 409.843499 
L 606.966052 446.903691 
L 614.924484 446.903691 
L 615.085803 372.783306 
L 615.247123 409.843499 
L 615.515989 409.843499 
L 615.569762 372.783306 
L 615.623535 409.843499 
L 616.591453 409.843499 
L 616.752772 372.783306 
L 616.806545 409.843499 
L 616.860319 372.783306 
L 617.021638 372.783306 
L 617.075411 409.843499 
L 617.129185 372.783306 
L 665.148643 372.783306 
L 665.309962 391.313402 
L 665.740148 391.313402 
L 665.901467 372.783306 
L 665.955241 391.313402 
L 666.009014 372.783306 
L 666.11656 372.783306 
L 666.27788 409.843499 
L 695.853134 409.843499 
L 695.906907 372.783306 
L 695.96068 409.843499 
L 696.122 409.843499 
L 696.229546 298.66292 
L 696.283319 335.723113 
L 696.337093 372.783306 
L 696.390866 298.66292 
L 696.444639 372.783306 
L 697.681422 372.783306 
L 697.842742 335.723113 
L 697.896515 335.723113 
L 698.057835 372.783306 
L 698.219154 372.783306 
L 698.326701 335.723113 
L 698.48802 372.783306 
L 698.756886 372.783306 
L 698.864432 335.723113 
L 699.025752 372.783306 
L 699.133298 335.723113 
L 699.294618 372.783306 
L 699.617257 372.783306 
L 699.724804 298.66292 
L 699.778577 335.723113 
L 699.886123 335.723113 
L 699.939896 372.783306 
L 700.101216 298.66292 
L 700.316309 298.66292 
L 700.370082 224.542534 
L 700.423855 261.602727 
L 700.477628 261.602727 
L 700.531401 224.542534 
L 700.692721 298.66292 
L 700.854041 187.482342 
L 700.961587 261.602727 
L 701.069133 187.482342 
L 701.122906 224.542534 
L 701.230453 224.542534 
L 701.391772 261.602727 
L 701.499319 261.602727 
L 701.606865 335.723113 
L 701.660638 298.66292 
L 701.875731 298.66292 
L 701.929504 261.602727 
L 701.983277 298.66292 
L 702.19837 372.783306 
L 702.252143 372.783306 
L 702.413463 335.723113 
L 702.574783 335.723113 
L 702.736102 372.783306 
L 702.897422 372.783306 
L 703.058741 335.723113 
L 703.112514 335.723113 
L 703.273834 372.783306 
L 735.967933 372.783306 
L 736.021706 391.313402 
L 736.07548 372.783306 
L 736.129253 372.783306 
L 736.290572 409.843499 
L 755.595147 409.843499 
L 755.648921 372.783306 
L 755.702694 409.843499 
L 755.864013 409.843499 
L 756.025333 372.783306 
L 756.186652 372.783306 
L 756.240426 409.843499 
L 756.294199 372.783306 
L 756.401745 372.783306 
L 756.509292 409.843499 
L 756.670611 372.783306 
L 757.100797 372.783306 
L 757.15457 409.843499 
L 757.208343 372.783306 
L 760.165868 372.783306 
L 760.327188 335.723113 
L 760.434734 335.723113 
L 760.596054 372.783306 
L 760.86492 372.783306 
L 761.026239 335.723113 
L 761.241332 335.723113 
L 761.402652 372.783306 
L 761.510198 372.783306 
L 761.671518 335.723113 
L 761.940384 335.723113 
L 762.101703 372.783306 
L 762.155476 372.783306 
L 762.316796 298.66292 
L 762.478116 335.723113 
L 762.693208 335.723113 
L 762.746982 298.66292 
L 762.800755 335.723113 
L 762.854528 335.723113 
L 763.015847 372.783306 
L 763.123394 372.783306 
L 763.284713 335.723113 
L 763.338487 335.723113 
L 763.499806 372.783306 
L 763.553579 335.723113 
L 763.607353 372.783306 
L 764.091311 372.783306 
L 764.145084 335.723113 
L 764.198858 372.783306 
L 779.846856 372.783306 
L 779.900629 409.843499 
L 779.954402 372.783306 
L 780.008175 335.723113 
L 780.061949 372.783306 
L 780.223268 372.783306 
L 780.277041 335.723113 
L 780.330814 372.783306 
L 780.438361 372.783306 
L 780.492134 409.843499 
L 780.545907 372.783306 
L 780.653454 372.783306 
L 780.707227 409.843499 
L 780.761 372.783306 
L 780.814773 335.723113 
L 780.868546 372.783306 
L 780.92232 409.843499 
L 780.976093 372.783306 
L 781.029866 372.783306 
L 781.137412 409.843499 
L 781.244959 372.783306 
L 781.352505 409.843499 
L 781.460051 372.783306 
L 781.513825 409.843499 
L 781.621371 335.723113 
L 781.728917 409.843499 
L 781.836464 372.783306 
L 781.997783 409.843499 
L 782.159103 409.843499 
L 782.212876 372.783306 
L 782.266649 409.843499 
L 812.594728 409.843499 
L 812.756048 372.783306 
L 812.917367 409.843499 
L 812.97114 372.783306 
L 813.024914 409.843499 
L 813.078687 409.843499 
L 813.240006 372.783306 
L 814.745656 372.783306 
L 814.799429 335.723113 
L 814.853202 372.783306 
L 815.283388 372.783306 
L 815.444707 298.66292 
L 815.606027 335.723113 
L 837.276622 335.723113 
L 837.437942 298.66292 
L 837.491715 298.66292 
L 837.599261 335.723113 
L 837.760581 298.66292 
L 844.052044 298.66292 
L 844.213363 335.723113 
L 845.934106 335.723113 
L 846.095425 298.66292 
L 846.364291 298.66292 
L 846.525611 335.723113 
L 846.579384 335.723113 
L 846.68693 298.66292 
L 846.84825 335.723113 
L 846.902023 335.723113 
L 847.063343 298.66292 
L 852.655754 298.66292 
L 852.817074 335.723113 
L 858.839671 335.723113 
L 859.000991 354.253209 
L 859.538722 354.253209 
L 859.700042 335.723113 
L 860.076454 335.723113 
L 860.237774 372.783306 
L 892.179048 372.783306 
L 892.340368 391.313402 
L 892.824327 391.313402 
L 892.985646 372.783306 
L 896.373357 372.783306 
L 896.534677 391.313402 
L 897.018636 391.313402 
L 897.179955 372.783306 
L 922.023169 372.783306 
L 922.184488 409.843499 
L 944.661681 409.843499 
L 944.715455 335.723113 
L 944.769228 409.843499 
L 945.038094 409.843499 
L 945.091867 372.783306 
L 945.14564 409.843499 
L 945.253186 409.843499 
L 945.360733 372.783306 
L 945.522052 409.843499 
L 945.629599 335.723113 
L 945.683372 372.783306 
L 945.790918 409.843499 
L 945.844691 298.66292 
L 945.898465 409.843499 
L 945.952238 372.783306 
L 946.006011 409.843499 
L 946.059784 409.843499 
L 946.221104 335.723113 
L 946.382423 409.843499 
L 946.436197 298.66292 
L 946.48997 409.843499 
L 946.543743 335.723113 
L 946.597516 372.783306 
L 946.758836 409.843499 
L 946.920155 409.843499 
L 947.027702 372.783306 
L 947.189021 409.843499 
L 951.490876 409.843499 
L 951.54465 335.723113 
L 951.598423 409.843499 
L 951.705969 409.843499 
L 951.867289 372.783306 
L 952.028608 409.843499 
L 952.136155 335.723113 
L 952.189928 372.783306 
L 952.243701 409.843499 
L 952.351247 335.723113 
L 952.405021 409.843499 
L 952.458794 261.602727 
L 952.512567 409.843499 
L 952.673887 372.783306 
L 952.781433 409.843499 
L 952.888979 372.783306 
L 953.050299 409.843499 
L 1009.942333 409.843499 
L 1010.04988 372.783306 
L 1010.211199 409.843499 
L 1010.533838 409.843499 
L 1010.695158 372.783306 
L 1010.856478 409.843499 
L 1011.125343 409.843499 
L 1011.286663 372.783306 
L 1011.394209 372.783306 
L 1011.501756 335.723113 
L 1011.609302 372.783306 
L 1011.663075 335.723113 
L 1011.716849 372.783306 
L 1012.093261 372.783306 
L 1012.200807 335.723113 
L 1012.362127 372.783306 
L 1012.738539 372.783306 
L 1012.792312 335.723113 
L 1012.846086 372.783306 
L 1013.276271 372.783306 
L 1013.437591 335.723113 
L 1013.491364 335.723113 
L 1013.652683 372.783306 
L 1013.867776 372.783306 
L 1014.029096 335.723113 
L 1014.190415 335.723113 
L 1014.351735 298.66292 
L 1014.459281 298.66292 
L 1014.620601 335.723113 
L 1014.889467 335.723113 
L 1014.94324 298.66292 
L 1014.997013 335.723113 
L 1017.416807 335.723113 
L 1017.578126 298.66292 
L 1026.181836 298.66292 
L 1026.343156 261.602727 
L 1027.149754 261.602727 
L 1027.311073 298.66292 
L 1034.516681 298.66292 
L 1034.678 335.723113 
L 1054.036349 335.723113 
L 1054.197668 354.253209 
L 1054.681627 354.253209 
L 1054.842946 335.723113 
L 1055.972183 335.723113 
L 1056.133503 372.783306 
L 1062.532513 372.783306 
L 1062.693832 391.313402 
L 1063.177791 391.313402 
L 1063.33911 372.783306 
L 1063.446657 372.783306 
L 1063.607976 391.313402 
L 1063.769296 372.783306 
L 1063.930615 372.783306 
L 1064.091935 409.843499 
L 1092.806818 409.843499 
L 1092.806818 409.843499 
" style="fill:none;stroke:#008000;stroke-linecap:square;stroke-opacity:0.8;stroke-width:2;"/>
   </g>
   <g id="patch_3">
    <path d="M 76.55 506.2 
L 76.55 17.005455 
" style="fill:none;stroke:#000000;stroke-linecap:square;stroke-linejoin:miter;stroke-width:0.8;"/>
   </g>
   <g id="patch_4">
    <path d="M 1141.2 506.2 
L 1141.2 17.005455 
" style="fill:none;stroke:#000000;stroke-linecap:square;stroke-linejoin:miter;stroke-width:0.8;"/>
   </g>
   <g id="patch_5">
    <path d="M 76.55 506.2 
L 1141.2 506.2 
" style="fill:none;stroke:#000000;stroke-linecap:square;stroke-linejoin:miter;stroke-width:0.8;"/>
   </g>
   <g id="patch_6">
    <path d="M 76.55 17.005455 
L 1141.2 17.005455 
" style="fill:none;stroke:#000000;stroke-linecap:square;stroke-linejoin:miter;stroke-width:0.8;"/>
   </g>
   <g id="legend_1">
    <g id="patch_7">
     <path d="M 960.527812 87.98233 
L 1127.9 87.98233 
Q 1131.7 87.98233 1131.7 84.18233 
L 1131.7 30.305455 
Q 1131.7 26.505455 1127.9 26.505455 
L 960.527812 26.505455 
Q 956.727813 26.505455 956.727813 30.305455 
L 956.727813 84.18233 
Q 956.727813 87.98233 960.527812 87.98233 
z
" style="fill:#ffffff;opacity:0.8;stroke:#cccccc;stroke-linejoin:miter;"/>
    </g>
    <g id="PathCollection_3">
     <g>
      <use style="fill:#0000ff;stroke:#0000ff;" x="983.327813" xlink:href="#m2375ec77f9" y="43.554986"/>
     </g>
    </g>
    <g id="text_17">
     <!-- odd births -->
     <defs>
      <path d="M 45.40625 46.390625 
L 45.40625 75.984375 
L 54.390625 75.984375 
L 54.390625 0 
L 45.40625 0 
L 45.40625 8.203125 
Q 42.578125 3.328125 38.25 0.953125 
Q 33.9375 -1.421875 27.875 -1.421875 
Q 17.96875 -1.421875 11.734375 6.484375 
Q 5.515625 14.40625 5.515625 27.296875 
Q 5.515625 40.1875 11.734375 48.09375 
Q 17.96875 56 27.875 56 
Q 33.9375 56 38.25 53.625 
Q 42.578125 51.265625 45.40625 46.390625 
z
M 14.796875 27.296875 
Q 14.796875 17.390625 18.875 11.75 
Q 22.953125 6.109375 30.078125 6.109375 
Q 37.203125 6.109375 41.296875 11.75 
Q 45.40625 17.390625 45.40625 27.296875 
Q 45.40625 37.203125 41.296875 42.84375 
Q 37.203125 48.484375 30.078125 48.484375 
Q 22.953125 48.484375 18.875 42.84375 
Q 14.796875 37.203125 14.796875 27.296875 
z
" id="DejaVuSans-100"/>
      <path d="M 54.890625 33.015625 
L 54.890625 0 
L 45.90625 0 
L 45.90625 32.71875 
Q 45.90625 40.484375 42.875 44.328125 
Q 39.84375 48.1875 33.796875 48.1875 
Q 26.515625 48.1875 22.3125 43.546875 
Q 18.109375 38.921875 18.109375 30.90625 
L 18.109375 0 
L 9.078125 0 
L 9.078125 75.984375 
L 18.109375 75.984375 
L 18.109375 46.1875 
Q 21.34375 51.125 25.703125 53.5625 
Q 30.078125 56 35.796875 56 
Q 45.21875 56 50.046875 50.171875 
Q 54.890625 44.34375 54.890625 33.015625 
z
" id="DejaVuSans-104"/>
     </defs>
     <g transform="translate(1017.527813 48.542486)scale(0.19 -0.19)">
      <use xlink:href="#DejaVuSans-111"/>
      <use x="61.181641" xlink:href="#DejaVuSans-100"/>
      <use x="124.658203" xlink:href="#DejaVuSans-100"/>
      <use x="188.134766" xlink:href="#DejaVuSans-32"/>
      <use x="219.921875" xlink:href="#DejaVuSans-98"/>
      <use x="283.398438" xlink:href="#DejaVuSans-105"/>
      <use x="311.181641" xlink:href="#DejaVuSans-114"/>
      <use x="352.294922" xlink:href="#DejaVuSans-116"/>
      <use x="391.503906" xlink:href="#DejaVuSans-104"/>
      <use x="454.882812" xlink:href="#DejaVuSans-115"/>
     </g>
    </g>
    <g id="PathCollection_4">
     <g>
      <use style="fill:#ff0000;stroke:#ff0000;" x="983.327813" xlink:href="#ma016f5d30b" y="71.443423"/>
     </g>
    </g>
    <g id="text_18">
     <!-- odd deaths -->
     <g transform="translate(1017.527813 76.430923)scale(0.19 -0.19)">
      <use xlink:href="#DejaVuSans-111"/>
      <use x="61.181641" xlink:href="#DejaVuSans-100"/>
      <use x="124.658203" xlink:href="#DejaVuSans-100"/>
      <use x="188.134766" xlink:href="#DejaVuSans-32"/>
      <use x="219.921875" xlink:href="#DejaVuSans-100"/>
      <use x="283.398438" xlink:href="#DejaVuSans-101"/>
      <use x="344.921875" xlink:href="#DejaVuSans-97"/>
      <use x="406.201172" xlink:href="#DejaVuSans-116"/>
      <use x="445.410156" xlink:href="#DejaVuSans-104"/>
      <use x="508.789062" xlink:href="#DejaVuSans-115"/>
     </g>
    </g>
   </g>
  </g>
 </g>
 <defs>
  <clipPath id="p36c116ddb8">
   <rect height="489.194545" width="1064.65" x="76.55" y="17.005455"/>
  </clipPath>
 </defs>
</svg>
