<?xml version="1.0" encoding="utf-8" standalone="no"?>
<!DOCTYPE svg PUBLIC "-//W3C//DTD SVG 1.1//EN"
  "http://www.w3.org/Graphics/SVG/1.1/DTD/svg11.dtd">
<!-- Created with matplotlib (https://matplotlib.org/) -->
<svg height="288pt" version="1.1" viewBox="0 0 288 288" width="288pt" xmlns="http://www.w3.org/2000/svg" xmlns:xlink="http://www.w3.org/1999/xlink">
 <defs>
  <style type="text/css">
*{stroke-linecap:butt;stroke-linejoin:round;}
  </style>
 </defs>
 <g id="figure_1">
  <g id="patch_1">
   <path d="M 0 288 
L 288 288 
L 288 0 
L 0 0 
z
" style="fill:#ffffff;"/>
  </g>
  <g id="axes_1">
   <g id="line2d_1">
    <path clip-path="url(#p0b6173a6ae)" d="M 248.039002 242.116364 
L 248.799701 237.126426 
L 249.054545 232.119771 
L 248.802261 227.113074 
L 248.044108 222.123011 
L 246.783876 217.166173 
L 245.027863 212.258989 
L 242.784843 207.417636 
L 240.066028 202.657963 
L 236.885002 197.995412 
L 233.257664 193.444939 
L 229.202141 189.02094 
L 224.738699 184.737178 
L 219.889644 180.606717 
L 214.67921 176.641852 
L 209.133434 172.854054 
L 203.280032 169.253907 
L 197.148254 165.851057 
L 190.768745 162.654165 
L 184.173384 159.670863 
L 177.395132 156.907714 
L 170.467863 154.370183 
L 163.426195 152.062605 
L 156.305317 149.988168 
L 149.140816 148.148894 
L 141.968496 146.54563 
L 134.8242 145.178042 
L 127.743631 144.044622 
L 120.762172 143.142687 
L 113.914714 142.468401 
L 107.235476 142.016789 
L 100.757837 141.781762 
L 94.514168 141.75615 
L 88.535671 141.931738 
L 82.852224 142.299301 
L 77.492228 142.84866 
L 72.482471 143.568723 
L 67.847987 144.447547 
L 63.611937 145.472397 
L 59.795491 146.629805 
L 56.41772 147.905642 
L 53.495505 149.285189 
L 51.04345 150.753205 
L 49.073808 152.294011 
L 47.596422 153.89156 
L 46.618675 155.529526 
L 46.145455 157.191377 
L 46.179124 158.860464 
L 46.719516 160.520101 
L 47.76393 162.153649 
L 49.307146 163.7446 
L 51.341452 165.276659 
L 53.856682 166.733824 
L 56.840267 168.100469 
L 60.277296 169.36142 
L 64.150593 170.502029 
L 68.440801 171.508252 
L 73.126481 172.366716 
L 78.184216 173.064787 
L 83.588731 173.590629 
L 89.313017 173.933272 
L 95.328468 174.082658 
L 101.605022 174.029696 
L 108.111312 173.766305 
L 114.814824 173.285457 
L 121.682058 172.581211 
L 128.678695 171.648741 
L 135.769771 170.484361 
L 142.919848 169.085547 
L 150.093194 167.450944 
L 157.253962 165.580376 
L 164.366365 163.474845 
L 171.394861 161.136531 
L 178.304326 158.568772 
L 185.060229 155.776058 
L 191.628809 152.763998 
L 197.97724 149.539302 
L 204.073796 146.109739 
L 209.88801 142.484103 
L 215.390827 138.672169 
L 220.554746 134.684641 
L 225.353962 130.533102 
L 229.76449 126.229955 
L 233.764289 121.788358 
L 237.333372 117.222164 
L 240.4539 112.545848 
L 243.110281 107.774433 
L 245.289239 102.923419 
L 246.979885 98.008705 
L 248.17377 93.046507 
L 248.864928 88.053277 
L 249.049905 83.045625 
L 248.727775 78.040231 
L 247.90015 73.053763 
L 246.571165 68.102797 
L 244.747462 63.20373 
L 242.438154 58.3727 
L 239.654782 53.625504 
L 236.411256 48.977522 
L 232.723784 44.443636 
" style="fill:none;stroke:#ff0000;stroke-linecap:square;stroke-width:1.5;"/>
   </g>
   <g id="line2d_2">
    <path clip-path="url(#p0b6173a6ae)" d="M 205.475666 235.450979 
L 201.909017 233.781159 
L 198.324408 232.11134 
L 194.739754 230.44152 
L 191.172969 228.771701 
L 187.641877 227.101882 
L 184.164125 225.432062 
L 180.757093 223.762243 
L 177.437806 222.092424 
L 174.222852 220.422604 
L 171.128299 218.752785 
L 168.169611 217.082965 
L 165.361573 215.413146 
L 162.718218 213.743327 
L 160.252757 212.073507 
L 157.97751 210.403688 
L 155.903848 208.733869 
L 154.042133 207.064049 
L 152.40167 205.39423 
L 150.990656 203.72441 
L 149.816143 202.054591 
L 148.884 200.384772 
L 148.198885 198.714952 
L 147.764223 197.045133 
L 147.582186 195.375313 
L 147.653683 193.705494 
L 147.978357 192.035675 
L 148.554585 190.365855 
L 149.379488 188.696036 
L 150.448944 187.026217 
L 151.757607 185.356397 
L 153.298939 183.686578 
L 155.065236 182.016758 
L 157.047671 180.346939 
L 159.236338 178.67712 
L 161.620298 177.0073 
L 164.187639 175.337481 
L 166.925529 173.667662 
L 169.820288 171.997842 
L 172.857448 170.328023 
L 176.021831 168.658203 
L 179.297624 166.988384 
L 182.668456 165.318565 
L 186.117483 163.648745 
L 189.627467 161.978926 
L 193.180868 160.309106 
L 196.759928 158.639287 
L 200.346761 156.969468 
L 203.923442 155.299648 
L 207.472098 153.629829 
L 210.974993 151.96001 
L 214.414623 150.29019 
L 217.773799 148.620371 
L 221.035732 146.950551 
L 224.184123 145.280732 
L 227.203237 143.610913 
L 230.077986 141.941093 
L 232.794005 140.271274 
L 235.337719 138.601455 
L 237.696418 136.931635 
L 239.858314 135.261816 
L 241.812602 133.591996 
L 243.549517 131.922177 
L 245.060378 130.252358 
L 246.337636 128.582538 
L 247.374906 126.912719 
L 248.167006 125.242899 
L 248.709977 123.57308 
L 249.001106 121.903261 
L 249.038937 120.233441 
L 248.823281 118.563622 
L 248.355217 116.893803 
L 247.637084 115.223983 
L 246.672469 113.554164 
L 245.466195 111.884344 
L 244.024288 110.214525 
L 242.353955 108.544706 
L 240.463544 106.874886 
L 238.3625 105.205067 
L 236.061325 103.535248 
L 233.571518 101.865428 
L 230.905521 100.195609 
L 228.076658 98.525789 
L 225.099066 96.85597 
L 221.987624 95.186151 
L 218.757883 93.516331 
L 215.425982 91.846512 
L 212.008572 90.176692 
L 208.522731 88.506873 
L 204.98588 86.837054 
L 201.415694 85.167234 
L 197.830014 83.497415 
L 194.246759 81.827596 
L 190.683837 80.157776 
L 187.159052 78.487957 
L 183.690021 76.818137 
L 180.294077 75.148318 
L 176.988194 73.478499 
L 173.788891 71.808679 
L 170.712157 70.13886 
" style="fill:none;stroke:#008000;stroke-linecap:square;stroke-width:1.5;"/>
   </g>
   <g id="line2d_3">
    <defs>
     <path d="M 0 -3 
L -0.673542 -0.927051 
L -2.85317 -0.927051 
L -1.089814 0.354102 
L -1.763356 2.427051 
L -0 1.145898 
L 1.763356 2.427051 
L 1.089814 0.354102 
L 2.85317 -0.927051 
L 0.673542 -0.927051 
z
" id="maddb336662" style="stroke:#0000ff;stroke-linejoin:bevel;"/>
    </defs>
    <g clip-path="url(#p0b6173a6ae)">
     <use style="fill:#0000ff;stroke:#0000ff;stroke-linejoin:bevel;" x="189.456142" xlink:href="#maddb336662" y="162.060431"/>
     <use style="fill:#0000ff;stroke:#0000ff;stroke-linejoin:bevel;" x="242.564351" xlink:href="#maddb336662" y="108.755037"/>
    </g>
   </g>
  </g>
 </g>
 <defs>
  <clipPath id="p0b6173a6ae">
   <rect height="217.44" width="223.2" x="36" y="34.56"/>
  </clipPath>
 </defs>
</svg>
